G04 #@! TF.FileFunction,Copper,L2,Bot,Signal*
%FSLAX46Y46*%
G04 Gerber Fmt 4.6, Leading zero omitted, Abs format (unit mm)*
G04 Created by KiCad (PCBNEW 4.0.5) date 07/10/18 11:51:24*
%MOMM*%
%LPD*%
G01*
G04 APERTURE LIST*
%ADD10C,0.100000*%
%ADD11C,4.000000*%
%ADD12C,6.400000*%
%ADD13C,1.300000*%
%ADD14R,1.300000X1.300000*%
%ADD15R,1.500000X1.500000*%
%ADD16C,1.500000*%
%ADD17O,1.500000X1.500000*%
%ADD18C,2.300000*%
%ADD19C,1.258000*%
%ADD20C,0.700000*%
%ADD21C,0.300000*%
%ADD22C,0.750000*%
%ADD23C,1.500000*%
%ADD24C,2.000000*%
%ADD25C,1.300000*%
%ADD26C,0.500000*%
%ADD27C,1.000000*%
%ADD28C,3.000000*%
%ADD29C,0.200000*%
G04 APERTURE END LIST*
D10*
D11*
X127127000Y-60264000D03*
X127127000Y-99264000D03*
D12*
X145720000Y-28400000D03*
X94920000Y-28400000D03*
X94920000Y-130000000D03*
X145720000Y-130000000D03*
D13*
X131135000Y-46990000D03*
D14*
X127635000Y-46990000D03*
D13*
X113355000Y-46990000D03*
D14*
X109855000Y-46990000D03*
X129540000Y-35560000D03*
D13*
X134540000Y-35560000D03*
D14*
X105410000Y-35560000D03*
D13*
X110410000Y-35560000D03*
D14*
X123190000Y-41910000D03*
D13*
X118190000Y-41910000D03*
D15*
X123190000Y-32385000D03*
D16*
X120650000Y-32385000D03*
X118110000Y-32385000D03*
D15*
X99060000Y-111760000D03*
D16*
X99060000Y-109220000D03*
X99060000Y-106680000D03*
D15*
X99060000Y-52070000D03*
D16*
X99060000Y-49530000D03*
X99060000Y-46990000D03*
D15*
X116320000Y-126000000D03*
D17*
X118860000Y-126000000D03*
D15*
X121780000Y-126000000D03*
D17*
X124320000Y-126000000D03*
D18*
X141275000Y-112180000D03*
X141275000Y-107180000D03*
X141275000Y-51220000D03*
X141275000Y-46220000D03*
D19*
X115570300Y-65774800D03*
X115569900Y-68317100D03*
X115569900Y-70858700D03*
X115570300Y-73399800D03*
X115570700Y-75940800D03*
X115570300Y-78483100D03*
X115570300Y-81024700D03*
X115570700Y-83565800D03*
X115570300Y-86106600D03*
X115569900Y-88648900D03*
X115569900Y-91190500D03*
X115570300Y-93731600D03*
X120650300Y-67044800D03*
X120649900Y-69587100D03*
X120649900Y-72128700D03*
X120650300Y-74669800D03*
X120650700Y-77210800D03*
X120650300Y-79753100D03*
X120650300Y-82294700D03*
X120650700Y-84835800D03*
X120650300Y-87376600D03*
X120649900Y-89918900D03*
X120649900Y-92460500D03*
D20*
X117856000Y-70866000D03*
X118935500Y-70866000D03*
X121539000Y-88582500D03*
X122491500Y-88519000D03*
X124206000Y-90297000D03*
X109728000Y-29972000D03*
X119380000Y-29591000D03*
X122174000Y-29591000D03*
X143764000Y-42672000D03*
X143764000Y-37465000D03*
X143764000Y-33909000D03*
X132715000Y-48641000D03*
X131445000Y-49911000D03*
X133985000Y-52705000D03*
X134493000Y-56007000D03*
X134493000Y-61087000D03*
X133096000Y-69215000D03*
X128778000Y-73787000D03*
X100330000Y-89408000D03*
X100330000Y-86106000D03*
X107442000Y-87376000D03*
X104648000Y-83185000D03*
X107442000Y-81280000D03*
X107569000Y-83185000D03*
X117475000Y-102870000D03*
X121920000Y-106045000D03*
X121920000Y-109855000D03*
X120015000Y-115570000D03*
X118745000Y-118110000D03*
X113284000Y-112014000D03*
X113284000Y-115824000D03*
X113284000Y-118110000D03*
X122555000Y-98806000D03*
X120269000Y-96647000D03*
X123063000Y-92837000D03*
X117094000Y-94742000D03*
X113411000Y-88773000D03*
X114427000Y-89789000D03*
X128905000Y-87630000D03*
X134620000Y-80010000D03*
X129540000Y-80010000D03*
X127127000Y-79756000D03*
X121666000Y-78613000D03*
X119507000Y-78486000D03*
X119380000Y-81026000D03*
X127190500Y-89281000D03*
X127381000Y-85979000D03*
X122047000Y-85852000D03*
X122174000Y-84582000D03*
X120650000Y-47625000D03*
X120650000Y-43815000D03*
X120650000Y-39370000D03*
X123825000Y-37465000D03*
X120650000Y-37465000D03*
X117475000Y-37465000D03*
X132715000Y-101600000D03*
X137160000Y-101600000D03*
X136525000Y-95885000D03*
X132080000Y-91440000D03*
X144145000Y-53975000D03*
X144145000Y-59690000D03*
X144145000Y-66040000D03*
X144145000Y-71755000D03*
X144145000Y-78740000D03*
X144145000Y-85090000D03*
X144145000Y-91440000D03*
X144145000Y-97790000D03*
X144145000Y-104775000D03*
X144145000Y-109220000D03*
X95885000Y-124460000D03*
X95885000Y-119380000D03*
X95885000Y-112395000D03*
X95885000Y-106045000D03*
X95885000Y-99695000D03*
X95885000Y-93345000D03*
X95885000Y-82550000D03*
X95885000Y-74930000D03*
X95885000Y-67945000D03*
X95885000Y-62230000D03*
X95885000Y-57785000D03*
X95885000Y-53975000D03*
X95885000Y-33655000D03*
X95885000Y-38735000D03*
X95885000Y-43815000D03*
X95885000Y-48895000D03*
X136525000Y-29845000D03*
X140335000Y-29845000D03*
X100330000Y-29845000D03*
X105410000Y-29845000D03*
X142875000Y-114935000D03*
X142875000Y-122555000D03*
X140970000Y-128905000D03*
X137795000Y-128905000D03*
X132715000Y-128905000D03*
X127635000Y-128905000D03*
X123190000Y-128905000D03*
X99060000Y-127000000D03*
X102235000Y-128905000D03*
X106680000Y-128905000D03*
X110490000Y-128905000D03*
X114300000Y-128905000D03*
X118745000Y-128905000D03*
X94920000Y-130000000D03*
X117157500Y-90678000D03*
X121793000Y-91186000D03*
X125412500Y-91186000D03*
X109474000Y-60960000D03*
X109664500Y-58166000D03*
X109474000Y-52387500D03*
X108902500Y-50419000D03*
X107188000Y-48831500D03*
X107442000Y-62611000D03*
X107315000Y-61023500D03*
X107505500Y-66548000D03*
X106172000Y-65278000D03*
X104267000Y-63500000D03*
X103949500Y-60896500D03*
X103949500Y-57785000D03*
X103886000Y-54800500D03*
X107188000Y-97472500D03*
X107442000Y-96012000D03*
X109601000Y-93789500D03*
X107251500Y-110807500D03*
X109918500Y-108013500D03*
X109791500Y-105156000D03*
X109791500Y-102108000D03*
X109791500Y-99377500D03*
X109791500Y-96837500D03*
X111061500Y-95186500D03*
X109728000Y-89154000D03*
X109791500Y-90741500D03*
X107188000Y-93218000D03*
X104648000Y-95821500D03*
X103759000Y-99377500D03*
X103759000Y-102552500D03*
X117856000Y-68580000D03*
X119126000Y-68580000D03*
X119126000Y-65405000D03*
X119126000Y-62230000D03*
X120396000Y-57404000D03*
X120777000Y-52324000D03*
X127254000Y-53975000D03*
X126746000Y-52324000D03*
X117729000Y-73406000D03*
X113792000Y-72136000D03*
X116682500Y-53817500D03*
X113030000Y-71374000D03*
X124841000Y-111506000D03*
X123317000Y-105029000D03*
D21*
X115569900Y-70858700D02*
X115577300Y-70858700D01*
X115577300Y-70858700D02*
X116395500Y-70040500D01*
X117538500Y-70866000D02*
X117856000Y-70866000D01*
X116713000Y-70040500D02*
X117538500Y-70866000D01*
X116395500Y-70040500D02*
X116713000Y-70040500D01*
X122936000Y-88519000D02*
X122491500Y-88519000D01*
X123063000Y-88646000D02*
X122936000Y-88519000D01*
X123063000Y-89154000D02*
X123063000Y-88646000D01*
X124206000Y-90297000D02*
X123063000Y-89154000D01*
X105410000Y-35560000D02*
X107442000Y-35560000D01*
X109728000Y-33274000D02*
X109728000Y-29972000D01*
X107442000Y-35560000D02*
X109728000Y-33274000D01*
X120650000Y-32385000D02*
X122174000Y-30861000D01*
X122174000Y-30861000D02*
X122174000Y-29591000D01*
X143764000Y-33909000D02*
X143764000Y-37465000D01*
X131135000Y-46990000D02*
X131135000Y-47061000D01*
X131135000Y-47061000D02*
X132715000Y-48641000D01*
X131445000Y-49911000D02*
X133985000Y-52451000D01*
X133985000Y-52451000D02*
X133985000Y-52705000D01*
X134493000Y-56007000D02*
X134493000Y-61087000D01*
X133096000Y-69469000D02*
X133096000Y-69215000D01*
X128778000Y-73787000D02*
X133096000Y-69469000D01*
X100330000Y-86106000D02*
X100330000Y-89408000D01*
X107442000Y-83058000D02*
X107442000Y-81280000D01*
X107569000Y-83185000D02*
X107442000Y-83058000D01*
X118745000Y-118110000D02*
X113284000Y-118110000D01*
X112331500Y-108013500D02*
X117475000Y-102870000D01*
X121920000Y-106045000D02*
X121920000Y-109855000D01*
X120015000Y-115570000D02*
X118745000Y-116840000D01*
X118745000Y-116840000D02*
X118745000Y-118110000D01*
X109918500Y-108013500D02*
X112331500Y-108013500D01*
X113284000Y-115824000D02*
X113284000Y-112014000D01*
X120269000Y-95631000D02*
X120269000Y-96647000D01*
X123063000Y-92837000D02*
X120269000Y-95631000D01*
X117157500Y-90678000D02*
X117157500Y-94678500D01*
X117157500Y-94678500D02*
X117094000Y-94742000D01*
X115569900Y-88648900D02*
X115567100Y-88648900D01*
X115567100Y-88648900D02*
X114427000Y-89789000D01*
X119380000Y-81026000D02*
X119380000Y-82931000D01*
X127381000Y-86106000D02*
X128905000Y-87630000D01*
X134620000Y-80010000D02*
X129540000Y-80010000D01*
X127127000Y-79756000D02*
X127000000Y-79629000D01*
X127000000Y-79629000D02*
X122682000Y-79629000D01*
X122682000Y-79629000D02*
X121666000Y-78613000D01*
X119507000Y-78486000D02*
X119380000Y-78613000D01*
X119380000Y-78613000D02*
X119380000Y-81026000D01*
X127190500Y-89281000D02*
X127381000Y-89090500D01*
X127381000Y-89090500D02*
X127381000Y-85979000D01*
X127381000Y-85979000D02*
X127381000Y-86106000D01*
X121920000Y-84328000D02*
X122174000Y-84582000D01*
X121793000Y-84328000D02*
X121920000Y-84328000D01*
X121031000Y-83566000D02*
X121793000Y-84328000D01*
X120015000Y-83566000D02*
X121031000Y-83566000D01*
X119380000Y-82931000D02*
X120015000Y-83566000D01*
X120650000Y-43815000D02*
X120650000Y-47625000D01*
X121920000Y-39370000D02*
X120650000Y-39370000D01*
X123825000Y-37465000D02*
X121920000Y-39370000D01*
X117475000Y-37465000D02*
X120650000Y-37465000D01*
X137160000Y-101600000D02*
X132715000Y-101600000D01*
X132080000Y-91440000D02*
X136525000Y-95885000D01*
X141275000Y-51220000D02*
X141390000Y-51220000D01*
X141390000Y-51220000D02*
X144145000Y-53975000D01*
X144145000Y-59690000D02*
X144145000Y-66040000D01*
X144145000Y-71755000D02*
X144145000Y-78740000D01*
X144145000Y-85090000D02*
X144145000Y-91440000D01*
X144145000Y-97790000D02*
X144145000Y-104775000D01*
X95885000Y-48895000D02*
X95885000Y-53975000D01*
X95885000Y-112395000D02*
X95885000Y-119380000D01*
X95885000Y-99695000D02*
X95885000Y-106045000D01*
X95885000Y-82550000D02*
X95885000Y-93345000D01*
X95885000Y-67945000D02*
X95885000Y-74930000D01*
X95885000Y-57785000D02*
X95885000Y-62230000D01*
X99060000Y-49530000D02*
X97155000Y-47625000D01*
X95885000Y-43815000D02*
X95885000Y-38735000D01*
X97155000Y-47625000D02*
X95885000Y-48895000D01*
X134620000Y-35560000D02*
X136525000Y-33655000D01*
X136525000Y-33655000D02*
X136525000Y-29845000D01*
X140335000Y-29845000D02*
X141605000Y-31115000D01*
X141605000Y-31115000D02*
X143005000Y-31115000D01*
X143005000Y-31115000D02*
X145720000Y-28400000D01*
X105410000Y-35560000D02*
X105410000Y-29845000D01*
X97635000Y-31115000D02*
X94920000Y-28400000D01*
X99060000Y-31115000D02*
X97635000Y-31115000D01*
X100330000Y-29845000D02*
X99060000Y-31115000D01*
X141275000Y-112180000D02*
X141390000Y-112180000D01*
X141390000Y-112180000D02*
X142875000Y-113665000D01*
X142875000Y-113665000D02*
X142875000Y-114935000D01*
X142240000Y-126520000D02*
X145720000Y-130000000D01*
X142240000Y-126365000D02*
X142240000Y-126520000D01*
X141605000Y-127000000D02*
X142240000Y-126365000D01*
X141605000Y-128270000D02*
X141605000Y-127000000D01*
X140970000Y-128905000D02*
X141605000Y-128270000D01*
X132715000Y-128905000D02*
X137795000Y-128905000D01*
X123190000Y-128905000D02*
X127635000Y-128905000D01*
X100330000Y-127000000D02*
X99060000Y-127000000D01*
X102235000Y-128905000D02*
X100330000Y-127000000D01*
X110490000Y-128905000D02*
X106680000Y-128905000D01*
X118745000Y-128905000D02*
X114300000Y-128905000D01*
X115569900Y-88648900D02*
X115569900Y-89090400D01*
X115569900Y-89090400D02*
X117157500Y-90678000D01*
X121793000Y-91186000D02*
X125412500Y-91186000D01*
X109664500Y-52578000D02*
X109664500Y-58166000D01*
X109474000Y-52387500D02*
X109664500Y-52578000D01*
X108775500Y-50419000D02*
X108902500Y-50419000D01*
X107188000Y-48831500D02*
X108775500Y-50419000D01*
X104267000Y-63500000D02*
X104838500Y-63500000D01*
X104838500Y-63500000D02*
X107315000Y-61023500D01*
X107442000Y-66548000D02*
X107505500Y-66548000D01*
X106172000Y-65278000D02*
X107442000Y-66548000D01*
X104267000Y-61214000D02*
X104267000Y-63500000D01*
X103949500Y-60896500D02*
X104267000Y-61214000D01*
X103949500Y-54864000D02*
X103949500Y-57785000D01*
X103886000Y-54800500D02*
X103949500Y-54864000D01*
X109601000Y-93789500D02*
X109664500Y-93789500D01*
X105537000Y-95821500D02*
X107188000Y-97472500D01*
X107442000Y-96012000D02*
X109601000Y-93853000D01*
X109601000Y-93853000D02*
X109601000Y-93789500D01*
X104648000Y-95821500D02*
X105537000Y-95821500D01*
X107251500Y-110680500D02*
X107251500Y-110807500D01*
X109918500Y-108013500D02*
X107251500Y-110680500D01*
X109791500Y-102108000D02*
X109791500Y-105156000D01*
X109791500Y-96837500D02*
X109791500Y-99377500D01*
X109664500Y-93789500D02*
X111061500Y-95186500D01*
X109728000Y-90678000D02*
X109728000Y-89154000D01*
X109791500Y-90741500D02*
X109728000Y-90678000D01*
X107188000Y-93281500D02*
X107188000Y-93218000D01*
X104648000Y-95821500D02*
X107188000Y-93281500D01*
X103759000Y-102552500D02*
X103759000Y-99377500D01*
X120777000Y-52324000D02*
X126746000Y-52324000D01*
X119126000Y-68580000D02*
X119126000Y-65405000D01*
X119126000Y-62230000D02*
X120396000Y-60960000D01*
X120396000Y-60960000D02*
X120396000Y-57404000D01*
X117856000Y-70866000D02*
X117856000Y-68580000D01*
X117856000Y-70866000D02*
X117856000Y-73279000D01*
X117856000Y-73279000D02*
X117729000Y-73406000D01*
D22*
X113030000Y-71374000D02*
X113792000Y-72136000D01*
X113030000Y-71374000D02*
X113030000Y-64516000D01*
X114681000Y-62865000D02*
X113030000Y-64516000D01*
X114681000Y-55819000D02*
X114681000Y-62865000D01*
X114681000Y-55819000D02*
X116682500Y-53817500D01*
D23*
X117856000Y-83439000D02*
X119252800Y-84835800D01*
X117856000Y-76200000D02*
X119386200Y-74669800D01*
D24*
X127635000Y-48768000D02*
X127635000Y-50165000D01*
X127635000Y-50165000D02*
X132715000Y-55245000D01*
X132715000Y-55245000D02*
X132715000Y-66548000D01*
D25*
X122936000Y-74669800D02*
X120650300Y-74669800D01*
D24*
X122936000Y-74676000D02*
X122936000Y-74669800D01*
X124587000Y-74676000D02*
X122936000Y-74676000D01*
X132715000Y-66548000D02*
X124587000Y-74676000D01*
X124587000Y-43307000D02*
X126746000Y-45466000D01*
X128079500Y-37020500D02*
X124714000Y-40386000D01*
X125095000Y-32385000D02*
X126365000Y-32385000D01*
X126365000Y-32385000D02*
X128143000Y-34163000D01*
D25*
X120650300Y-74669800D02*
X119386200Y-74669800D01*
D23*
X117856000Y-76200000D02*
X117856000Y-83439000D01*
D25*
X119252800Y-84835800D02*
X120650700Y-84835800D01*
X127635000Y-46990000D02*
X127635000Y-46355000D01*
X127635000Y-46355000D02*
X126746000Y-45466000D01*
X124587000Y-43307000D02*
X123190000Y-41910000D01*
X127635000Y-46990000D02*
X127635000Y-48768000D01*
X127635000Y-50165000D02*
X132715000Y-55245000D01*
D21*
X123190000Y-41910000D02*
X123190000Y-42545000D01*
D25*
X123190000Y-32385000D02*
X125095000Y-32385000D01*
X126365000Y-32385000D02*
X128143000Y-34163000D01*
X128143000Y-34163000D02*
X129540000Y-35560000D01*
X129540000Y-35560000D02*
X128079500Y-37020500D01*
X124714000Y-40386000D02*
X123190000Y-41910000D01*
D26*
X120650700Y-84835800D02*
X118745000Y-84835800D01*
X118745000Y-84835800D02*
X118745200Y-84836000D01*
X118745200Y-84836000D02*
X118872000Y-84836000D01*
X118872000Y-84836000D02*
X118745000Y-84836000D01*
X120650300Y-74669800D02*
X120275200Y-74669800D01*
D22*
X124841000Y-103886000D02*
X124841000Y-111506000D01*
X118745000Y-84836000D02*
X118745000Y-97790000D01*
X118745000Y-97790000D02*
X124841000Y-103886000D01*
D24*
X111442500Y-52514500D02*
X111442500Y-62230000D01*
X111442500Y-62230000D02*
X109982000Y-63690500D01*
X109982000Y-75565000D02*
X112900100Y-78483100D01*
X111442500Y-52514500D02*
X113355000Y-50602000D01*
X113355000Y-50602000D02*
X113355000Y-49093000D01*
X113347500Y-49085500D02*
X113355000Y-49085500D01*
X113355000Y-49093000D02*
X113347500Y-49085500D01*
D27*
X113355000Y-46990000D02*
X113355000Y-49085500D01*
X113355000Y-49085500D02*
X113355000Y-50602000D01*
X112900100Y-78483100D02*
X115570300Y-78483100D01*
D24*
X109982000Y-63690500D02*
X109982000Y-75565000D01*
D27*
X113355000Y-46990000D02*
X113284000Y-46990000D01*
D24*
X115951000Y-41101000D02*
X115951000Y-42799000D01*
X115951000Y-42799000D02*
X113355000Y-45395000D01*
D25*
X113355000Y-45395000D02*
X116840000Y-41910000D01*
D24*
X111656500Y-36806500D02*
X111656500Y-36853500D01*
X115951000Y-41148000D02*
X115951000Y-41101000D01*
X111656500Y-36853500D02*
X115951000Y-41148000D01*
X111529500Y-34440500D02*
X113585000Y-32385000D01*
X113585000Y-32385000D02*
X116078000Y-32385000D01*
D25*
X111529500Y-34440500D02*
X110410000Y-35560000D01*
X115570300Y-78483100D02*
X115570300Y-81024700D01*
X113355000Y-46990000D02*
X113355000Y-45395000D01*
X118190000Y-41910000D02*
X116840000Y-41910000D01*
X116840000Y-41910000D02*
X116760000Y-41910000D01*
X116760000Y-41910000D02*
X115951000Y-41101000D01*
X111656500Y-36806500D02*
X110410000Y-35560000D01*
X118110000Y-32385000D02*
X116078000Y-32385000D01*
X116078000Y-32385000D02*
X113585000Y-32385000D01*
D22*
X115570300Y-81024700D02*
X114682300Y-81024700D01*
X114682300Y-81024700D02*
X111633000Y-84074000D01*
X111633000Y-84074000D02*
X111633000Y-93345000D01*
X111633000Y-93345000D02*
X123317000Y-105029000D01*
D21*
X117475000Y-99187000D02*
X117475000Y-99060000D01*
X117475000Y-99060000D02*
X117475000Y-99187000D01*
D26*
X123317000Y-105029000D02*
X117475000Y-99187000D01*
D28*
X141224000Y-104394000D02*
X141275000Y-104394000D01*
X141275000Y-104343000D02*
X141224000Y-104394000D01*
X141275000Y-95555000D02*
X141275000Y-104343000D01*
D24*
X141275000Y-104394000D02*
X141275000Y-107180000D01*
D28*
X128014700Y-82294700D02*
X122807700Y-82294700D01*
X128014700Y-82294700D02*
X141275000Y-95555000D01*
D25*
X120650300Y-82294700D02*
X122807700Y-82294700D01*
X122807700Y-82294700D02*
X122809000Y-82296000D01*
D28*
X129037200Y-77210800D02*
X127381000Y-77210800D01*
X136779000Y-50716000D02*
X136779000Y-50673000D01*
X138938000Y-48514000D02*
X138938000Y-48557000D01*
X136779000Y-50673000D02*
X138938000Y-48514000D01*
X136779000Y-69469000D02*
X136779000Y-65913000D01*
X129037200Y-77210800D02*
X136779000Y-69469000D01*
D24*
X122803800Y-77210800D02*
X127381000Y-77210800D01*
X138938000Y-48557000D02*
X141275000Y-46220000D01*
D28*
X136779000Y-65913000D02*
X136779000Y-50716000D01*
D25*
X120650700Y-77210800D02*
X122803800Y-77210800D01*
X122803800Y-77210800D02*
X122809000Y-77216000D01*
D29*
G36*
X142121156Y-29121871D02*
X142664793Y-30434327D01*
X143091418Y-30816450D01*
X143828723Y-30079145D01*
X144040855Y-30291277D01*
X143303550Y-31028582D01*
X143685673Y-31455207D01*
X145009704Y-32001146D01*
X145345000Y-32000607D01*
X145345000Y-126400598D01*
X144998129Y-126401156D01*
X143685673Y-126944793D01*
X143303550Y-127371418D01*
X144026096Y-128093964D01*
X143812018Y-128304150D01*
X143091418Y-127583550D01*
X142664793Y-127965673D01*
X142118854Y-129289704D01*
X142119393Y-129625000D01*
X98519402Y-129625000D01*
X98518844Y-129278129D01*
X97975207Y-127965673D01*
X97548582Y-127583550D01*
X96826036Y-128306096D01*
X96615850Y-128092018D01*
X97336450Y-127371418D01*
X96954327Y-126944793D01*
X95630296Y-126398854D01*
X95295000Y-126399393D01*
X95295000Y-125250000D01*
X115162164Y-125250000D01*
X115162164Y-126750000D01*
X115190056Y-126898231D01*
X115277660Y-127034372D01*
X115411329Y-127125704D01*
X115570000Y-127157836D01*
X117070000Y-127157836D01*
X117218231Y-127129944D01*
X117354372Y-127042340D01*
X117445704Y-126908671D01*
X117477836Y-126750000D01*
X117477836Y-126326518D01*
X117757313Y-126326518D01*
X117966203Y-126723643D01*
X118311165Y-127010600D01*
X118533484Y-127102672D01*
X118710000Y-127039230D01*
X118710000Y-126150000D01*
X119010000Y-126150000D01*
X119010000Y-127039230D01*
X119186516Y-127102672D01*
X119408835Y-127010600D01*
X119753797Y-126723643D01*
X119962687Y-126326518D01*
X119900190Y-126150000D01*
X119010000Y-126150000D01*
X118710000Y-126150000D01*
X117819810Y-126150000D01*
X117757313Y-126326518D01*
X117477836Y-126326518D01*
X117477836Y-125673482D01*
X117757313Y-125673482D01*
X117819810Y-125850000D01*
X118710000Y-125850000D01*
X118710000Y-124960770D01*
X119010000Y-124960770D01*
X119010000Y-125850000D01*
X119900190Y-125850000D01*
X119962687Y-125673482D01*
X119753797Y-125276357D01*
X119722113Y-125250000D01*
X120622164Y-125250000D01*
X120622164Y-126750000D01*
X120650056Y-126898231D01*
X120737660Y-127034372D01*
X120871329Y-127125704D01*
X121030000Y-127157836D01*
X122530000Y-127157836D01*
X122678231Y-127129944D01*
X122814372Y-127042340D01*
X122905704Y-126908671D01*
X122937836Y-126750000D01*
X122937836Y-126326518D01*
X123217313Y-126326518D01*
X123426203Y-126723643D01*
X123771165Y-127010600D01*
X123993484Y-127102672D01*
X124170000Y-127039230D01*
X124170000Y-126150000D01*
X124470000Y-126150000D01*
X124470000Y-127039230D01*
X124646516Y-127102672D01*
X124868835Y-127010600D01*
X125213797Y-126723643D01*
X125422687Y-126326518D01*
X125360190Y-126150000D01*
X124470000Y-126150000D01*
X124170000Y-126150000D01*
X123279810Y-126150000D01*
X123217313Y-126326518D01*
X122937836Y-126326518D01*
X122937836Y-125673482D01*
X123217313Y-125673482D01*
X123279810Y-125850000D01*
X124170000Y-125850000D01*
X124170000Y-124960770D01*
X124470000Y-124960770D01*
X124470000Y-125850000D01*
X125360190Y-125850000D01*
X125422687Y-125673482D01*
X125213797Y-125276357D01*
X124868835Y-124989400D01*
X124646516Y-124897328D01*
X124470000Y-124960770D01*
X124170000Y-124960770D01*
X123993484Y-124897328D01*
X123771165Y-124989400D01*
X123426203Y-125276357D01*
X123217313Y-125673482D01*
X122937836Y-125673482D01*
X122937836Y-125250000D01*
X122909944Y-125101769D01*
X122822340Y-124965628D01*
X122688671Y-124874296D01*
X122530000Y-124842164D01*
X121030000Y-124842164D01*
X120881769Y-124870056D01*
X120745628Y-124957660D01*
X120654296Y-125091329D01*
X120622164Y-125250000D01*
X119722113Y-125250000D01*
X119408835Y-124989400D01*
X119186516Y-124897328D01*
X119010000Y-124960770D01*
X118710000Y-124960770D01*
X118533484Y-124897328D01*
X118311165Y-124989400D01*
X117966203Y-125276357D01*
X117757313Y-125673482D01*
X117477836Y-125673482D01*
X117477836Y-125250000D01*
X117449944Y-125101769D01*
X117362340Y-124965628D01*
X117228671Y-124874296D01*
X117070000Y-124842164D01*
X115570000Y-124842164D01*
X115421769Y-124870056D01*
X115285628Y-124957660D01*
X115194296Y-125091329D01*
X115162164Y-125250000D01*
X95295000Y-125250000D01*
X95295000Y-113327455D01*
X140339677Y-113327455D01*
X140471631Y-113540939D01*
X141053592Y-113744779D01*
X141669261Y-113710396D01*
X142078369Y-113540939D01*
X142210323Y-113327455D01*
X141275000Y-112392132D01*
X140339677Y-113327455D01*
X95295000Y-113327455D01*
X95295000Y-111010000D01*
X97902164Y-111010000D01*
X97902164Y-112510000D01*
X97930056Y-112658231D01*
X98017660Y-112794372D01*
X98151329Y-112885704D01*
X98310000Y-112917836D01*
X99810000Y-112917836D01*
X99958231Y-112889944D01*
X100094372Y-112802340D01*
X100185704Y-112668671D01*
X100217836Y-112510000D01*
X100217836Y-111010000D01*
X100189944Y-110861769D01*
X100102340Y-110725628D01*
X99968671Y-110634296D01*
X99810000Y-110602164D01*
X98310000Y-110602164D01*
X98161769Y-110630056D01*
X98025628Y-110717660D01*
X97934296Y-110851329D01*
X97902164Y-111010000D01*
X95295000Y-111010000D01*
X95295000Y-110077006D01*
X98415126Y-110077006D01*
X98497819Y-110248970D01*
X98934382Y-110385781D01*
X99390070Y-110345114D01*
X99622181Y-110248970D01*
X99704874Y-110077006D01*
X99060000Y-109432132D01*
X98415126Y-110077006D01*
X95295000Y-110077006D01*
X95295000Y-109094382D01*
X97894219Y-109094382D01*
X97934886Y-109550070D01*
X98031030Y-109782181D01*
X98202994Y-109864874D01*
X98847868Y-109220000D01*
X99272132Y-109220000D01*
X99917006Y-109864874D01*
X100088970Y-109782181D01*
X100225781Y-109345618D01*
X100185114Y-108889930D01*
X100088970Y-108657819D01*
X99917006Y-108575126D01*
X99272132Y-109220000D01*
X98847868Y-109220000D01*
X98202994Y-108575126D01*
X98031030Y-108657819D01*
X97894219Y-109094382D01*
X95295000Y-109094382D01*
X95295000Y-108362994D01*
X98415126Y-108362994D01*
X99060000Y-109007868D01*
X99704874Y-108362994D01*
X99622181Y-108191030D01*
X99185618Y-108054219D01*
X98729930Y-108094886D01*
X98497819Y-108191030D01*
X98415126Y-108362994D01*
X95295000Y-108362994D01*
X95295000Y-106907746D01*
X97909801Y-106907746D01*
X98084509Y-107330572D01*
X98407727Y-107654354D01*
X98830247Y-107829800D01*
X99287746Y-107830199D01*
X99710572Y-107655491D01*
X100034354Y-107332273D01*
X100209800Y-106909753D01*
X100210199Y-106452254D01*
X100035491Y-106029428D01*
X99712273Y-105705646D01*
X99289753Y-105530200D01*
X98832254Y-105529801D01*
X98409428Y-105704509D01*
X98085646Y-106027727D01*
X97910200Y-106450247D01*
X97909801Y-106907746D01*
X95295000Y-106907746D01*
X95295000Y-63690500D01*
X108582000Y-63690500D01*
X108582000Y-75565000D01*
X108688569Y-76100757D01*
X108847735Y-76338965D01*
X108992051Y-76554949D01*
X111910151Y-79473050D01*
X112364344Y-79776532D01*
X112900100Y-79883100D01*
X113435857Y-79776532D01*
X113890050Y-79473050D01*
X113950153Y-79383100D01*
X114520300Y-79383100D01*
X114520300Y-80281924D01*
X114385720Y-80308693D01*
X114134292Y-80476692D01*
X114134290Y-80476695D01*
X111084992Y-83525992D01*
X110916993Y-83777420D01*
X110858000Y-84074000D01*
X110858000Y-93345000D01*
X110916993Y-93641580D01*
X111084992Y-93893008D01*
X122768992Y-105577008D01*
X122875079Y-105647893D01*
X122891605Y-105664448D01*
X122913399Y-105673497D01*
X123020420Y-105745007D01*
X123145557Y-105769898D01*
X123167161Y-105778869D01*
X123190761Y-105778890D01*
X123317000Y-105804000D01*
X123442133Y-105779110D01*
X123465530Y-105779130D01*
X123487344Y-105770117D01*
X123613579Y-105745007D01*
X123719665Y-105674122D01*
X123741286Y-105665189D01*
X123757988Y-105648517D01*
X123865008Y-105577008D01*
X123935892Y-105470922D01*
X123952448Y-105454395D01*
X123961498Y-105432600D01*
X124033007Y-105325579D01*
X124057898Y-105200444D01*
X124066000Y-105180932D01*
X124066000Y-111506000D01*
X124090890Y-111631134D01*
X124090870Y-111654530D01*
X124099883Y-111676343D01*
X124124993Y-111802580D01*
X124195878Y-111908667D01*
X124204811Y-111930286D01*
X124221483Y-111946987D01*
X124292992Y-112054008D01*
X124399079Y-112124893D01*
X124415605Y-112141448D01*
X124437399Y-112150497D01*
X124544420Y-112222007D01*
X124669557Y-112246898D01*
X124691161Y-112255869D01*
X124714761Y-112255890D01*
X124841000Y-112281000D01*
X124966134Y-112256110D01*
X124989530Y-112256130D01*
X125011343Y-112247117D01*
X125137580Y-112222007D01*
X125243667Y-112151122D01*
X125265286Y-112142189D01*
X125281987Y-112125517D01*
X125389008Y-112054008D01*
X125452762Y-111958592D01*
X139710221Y-111958592D01*
X139744604Y-112574261D01*
X139914061Y-112983369D01*
X140127545Y-113115323D01*
X141062868Y-112180000D01*
X141487132Y-112180000D01*
X142422455Y-113115323D01*
X142635939Y-112983369D01*
X142839779Y-112401408D01*
X142805396Y-111785739D01*
X142635939Y-111376631D01*
X142422455Y-111244677D01*
X141487132Y-112180000D01*
X141062868Y-112180000D01*
X140127545Y-111244677D01*
X139914061Y-111376631D01*
X139710221Y-111958592D01*
X125452762Y-111958592D01*
X125459893Y-111947921D01*
X125476448Y-111931395D01*
X125485497Y-111909601D01*
X125557007Y-111802580D01*
X125581898Y-111677443D01*
X125590869Y-111655839D01*
X125590890Y-111632239D01*
X125616000Y-111506000D01*
X125616000Y-111032545D01*
X140339677Y-111032545D01*
X141275000Y-111967868D01*
X142210323Y-111032545D01*
X142078369Y-110819061D01*
X141496408Y-110615221D01*
X140880739Y-110649604D01*
X140471631Y-110819061D01*
X140339677Y-111032545D01*
X125616000Y-111032545D01*
X125616000Y-103886000D01*
X125557007Y-103589420D01*
X125389008Y-103337992D01*
X121790311Y-99739295D01*
X124726584Y-99739295D01*
X125091192Y-100621715D01*
X125765734Y-101297435D01*
X126647516Y-101663583D01*
X127602295Y-101664416D01*
X128484715Y-101299808D01*
X129160435Y-100625266D01*
X129526583Y-99743484D01*
X129527416Y-98788705D01*
X129162808Y-97906285D01*
X128488266Y-97230565D01*
X127606484Y-96864417D01*
X126651705Y-96863584D01*
X125769285Y-97228192D01*
X125093565Y-97902734D01*
X124727417Y-98784516D01*
X124726584Y-99739295D01*
X121790311Y-99739295D01*
X119520000Y-97468984D01*
X119520000Y-92664283D01*
X119620722Y-92664283D01*
X119777048Y-93042620D01*
X120066257Y-93332335D01*
X120444321Y-93489321D01*
X120853683Y-93489678D01*
X121232020Y-93333352D01*
X121521735Y-93044143D01*
X121678721Y-92666079D01*
X121679078Y-92256717D01*
X121522752Y-91878380D01*
X121233543Y-91588665D01*
X120855479Y-91431679D01*
X120446117Y-91431322D01*
X120067780Y-91587648D01*
X119778065Y-91876857D01*
X119621079Y-92254921D01*
X119620722Y-92664283D01*
X119520000Y-92664283D01*
X119520000Y-90122683D01*
X119620722Y-90122683D01*
X119777048Y-90501020D01*
X120066257Y-90790735D01*
X120444321Y-90947721D01*
X120853683Y-90948078D01*
X121232020Y-90791752D01*
X121521735Y-90502543D01*
X121678721Y-90124479D01*
X121679078Y-89715117D01*
X121522752Y-89336780D01*
X121233543Y-89047065D01*
X120855479Y-88890079D01*
X120446117Y-88889722D01*
X120067780Y-89046048D01*
X119778065Y-89335257D01*
X119621079Y-89713321D01*
X119620722Y-90122683D01*
X119520000Y-90122683D01*
X119520000Y-87580383D01*
X119621122Y-87580383D01*
X119777448Y-87958720D01*
X120066657Y-88248435D01*
X120444721Y-88405421D01*
X120854083Y-88405778D01*
X121232420Y-88249452D01*
X121522135Y-87960243D01*
X121679121Y-87582179D01*
X121679478Y-87172817D01*
X121523152Y-86794480D01*
X121233943Y-86504765D01*
X120855879Y-86347779D01*
X120446517Y-86347422D01*
X120068180Y-86503748D01*
X119778465Y-86792957D01*
X119621479Y-87171021D01*
X119621122Y-87580383D01*
X119520000Y-87580383D01*
X119520000Y-85932651D01*
X119692886Y-85898262D01*
X119711537Y-85885800D01*
X120650700Y-85885800D01*
X120755813Y-85864892D01*
X120854483Y-85864978D01*
X120946477Y-85826967D01*
X121052518Y-85805874D01*
X121141630Y-85746331D01*
X121232820Y-85708652D01*
X121303267Y-85638328D01*
X121393162Y-85578262D01*
X121452703Y-85489153D01*
X121522535Y-85419443D01*
X121560707Y-85327514D01*
X121620774Y-85237618D01*
X121641682Y-85132505D01*
X121679521Y-85041379D01*
X121679608Y-84941838D01*
X121700700Y-84835800D01*
X121679792Y-84730687D01*
X121679878Y-84632017D01*
X121641867Y-84540023D01*
X121620774Y-84433982D01*
X121561231Y-84344870D01*
X121523552Y-84253680D01*
X121453228Y-84183233D01*
X121393162Y-84093338D01*
X121304053Y-84033797D01*
X121234343Y-83963965D01*
X121142414Y-83925793D01*
X121052518Y-83865726D01*
X120947405Y-83844818D01*
X120856279Y-83806979D01*
X120756738Y-83806892D01*
X120650700Y-83785800D01*
X119829145Y-83785800D01*
X119006000Y-82962654D01*
X119006000Y-82294700D01*
X119600300Y-82294700D01*
X119621208Y-82399813D01*
X119621122Y-82498483D01*
X119659133Y-82590477D01*
X119680226Y-82696518D01*
X119739769Y-82785630D01*
X119777448Y-82876820D01*
X119847772Y-82947267D01*
X119907838Y-83037162D01*
X119996947Y-83096703D01*
X120066657Y-83166535D01*
X120158586Y-83204707D01*
X120248482Y-83264774D01*
X120353595Y-83285682D01*
X120444721Y-83323521D01*
X120544262Y-83323608D01*
X120650300Y-83344700D01*
X121268085Y-83344700D01*
X121464197Y-83638203D01*
X122080601Y-84050071D01*
X122807700Y-84194700D01*
X127227694Y-84194700D01*
X139375000Y-96342006D01*
X139375000Y-104137606D01*
X139324000Y-104394000D01*
X139468629Y-105121099D01*
X139875000Y-105729276D01*
X139875000Y-106509742D01*
X139725270Y-106870333D01*
X139724732Y-107486961D01*
X139960208Y-108056857D01*
X140395849Y-108493260D01*
X140965333Y-108729730D01*
X141581961Y-108730268D01*
X142151857Y-108494792D01*
X142588260Y-108059151D01*
X142824730Y-107489667D01*
X142825268Y-106873039D01*
X142675000Y-106509362D01*
X142675000Y-105652949D01*
X143030371Y-105121099D01*
X143175000Y-104394000D01*
X143169928Y-104368500D01*
X143175000Y-104343000D01*
X143175000Y-95555000D01*
X143030371Y-94827901D01*
X142618503Y-94211497D01*
X129358203Y-80951197D01*
X129160537Y-80819121D01*
X128741799Y-80539329D01*
X128014700Y-80394700D01*
X122807700Y-80394700D01*
X122080601Y-80539329D01*
X121464197Y-80951197D01*
X121268085Y-81244700D01*
X120650300Y-81244700D01*
X120545187Y-81265608D01*
X120446517Y-81265522D01*
X120354523Y-81303533D01*
X120248482Y-81324626D01*
X120159370Y-81384169D01*
X120068180Y-81421848D01*
X119997733Y-81492172D01*
X119907838Y-81552238D01*
X119848297Y-81641347D01*
X119778465Y-81711057D01*
X119740293Y-81802986D01*
X119680226Y-81892882D01*
X119659318Y-81997995D01*
X119621479Y-82089121D01*
X119621392Y-82188662D01*
X119600300Y-82294700D01*
X119006000Y-82294700D01*
X119006000Y-79956883D01*
X119621122Y-79956883D01*
X119777448Y-80335220D01*
X120066657Y-80624935D01*
X120444721Y-80781921D01*
X120854083Y-80782278D01*
X121232420Y-80625952D01*
X121522135Y-80336743D01*
X121679121Y-79958679D01*
X121679478Y-79549317D01*
X121523152Y-79170980D01*
X121233943Y-78881265D01*
X120855879Y-78724279D01*
X120446517Y-78723922D01*
X120068180Y-78880248D01*
X119778465Y-79169457D01*
X119621479Y-79547521D01*
X119621122Y-79956883D01*
X119006000Y-79956883D01*
X119006000Y-76676346D01*
X119962546Y-75719800D01*
X122026645Y-75719800D01*
X122309874Y-75909048D01*
X122268043Y-75917369D01*
X121903723Y-76160800D01*
X120650700Y-76160800D01*
X120545587Y-76181708D01*
X120446917Y-76181622D01*
X120354923Y-76219633D01*
X120248882Y-76240726D01*
X120159770Y-76300269D01*
X120068580Y-76337948D01*
X119998133Y-76408272D01*
X119908238Y-76468338D01*
X119848697Y-76557447D01*
X119778865Y-76627157D01*
X119740693Y-76719086D01*
X119680626Y-76808982D01*
X119659718Y-76914095D01*
X119621879Y-77005221D01*
X119621792Y-77104762D01*
X119600700Y-77210800D01*
X119621608Y-77315913D01*
X119621522Y-77414583D01*
X119659533Y-77506577D01*
X119680626Y-77612618D01*
X119740169Y-77701730D01*
X119777848Y-77792920D01*
X119848172Y-77863367D01*
X119908238Y-77953262D01*
X119997347Y-78012803D01*
X120067057Y-78082635D01*
X120158986Y-78120807D01*
X120248882Y-78180874D01*
X120353995Y-78201782D01*
X120445121Y-78239621D01*
X120544662Y-78239708D01*
X120650700Y-78260800D01*
X121903723Y-78260800D01*
X122268043Y-78504231D01*
X122803800Y-78610800D01*
X126122051Y-78610800D01*
X126653901Y-78966171D01*
X127381000Y-79110800D01*
X129037200Y-79110800D01*
X129764299Y-78966171D01*
X130380703Y-78554303D01*
X138122503Y-70812503D01*
X138534372Y-70196098D01*
X138679000Y-69469000D01*
X138679000Y-52367455D01*
X140339677Y-52367455D01*
X140471631Y-52580939D01*
X141053592Y-52784779D01*
X141669261Y-52750396D01*
X142078369Y-52580939D01*
X142210323Y-52367455D01*
X141275000Y-51432132D01*
X140339677Y-52367455D01*
X138679000Y-52367455D01*
X138679000Y-51460006D01*
X139140414Y-50998592D01*
X139710221Y-50998592D01*
X139744604Y-51614261D01*
X139914061Y-52023369D01*
X140127545Y-52155323D01*
X141062868Y-51220000D01*
X141487132Y-51220000D01*
X142422455Y-52155323D01*
X142635939Y-52023369D01*
X142839779Y-51441408D01*
X142805396Y-50825739D01*
X142635939Y-50416631D01*
X142422455Y-50284677D01*
X141487132Y-51220000D01*
X141062868Y-51220000D01*
X140127545Y-50284677D01*
X139914061Y-50416631D01*
X139710221Y-50998592D01*
X139140414Y-50998592D01*
X140066461Y-50072545D01*
X140339677Y-50072545D01*
X141275000Y-51007868D01*
X142210323Y-50072545D01*
X142078369Y-49859061D01*
X141496408Y-49655221D01*
X140880739Y-49689604D01*
X140471631Y-49859061D01*
X140339677Y-50072545D01*
X140066461Y-50072545D01*
X140151915Y-49987091D01*
X140281503Y-49900503D01*
X140693371Y-49284099D01*
X140818161Y-48656737D01*
X141791007Y-47683892D01*
X142151857Y-47534792D01*
X142588260Y-47099151D01*
X142824730Y-46529667D01*
X142825268Y-45913039D01*
X142589792Y-45343143D01*
X142154151Y-44906740D01*
X141584667Y-44670270D01*
X140968039Y-44669732D01*
X140398143Y-44905208D01*
X139961740Y-45340849D01*
X139810837Y-45704264D01*
X138891940Y-46623162D01*
X138210901Y-46758629D01*
X137864630Y-46990000D01*
X137594497Y-47170497D01*
X135435497Y-49329497D01*
X135023629Y-49945901D01*
X134879000Y-50673000D01*
X134879000Y-68681994D01*
X128250194Y-75310800D01*
X127381000Y-75310800D01*
X126653901Y-75455429D01*
X126122051Y-75810800D01*
X125360165Y-75810800D01*
X125576949Y-75665949D01*
X133704950Y-67537949D01*
X133893006Y-67256503D01*
X134008431Y-67083757D01*
X134115000Y-66548000D01*
X134115000Y-55245000D01*
X134008431Y-54709243D01*
X133837180Y-54452948D01*
X133704950Y-54255051D01*
X129035000Y-49585102D01*
X129035000Y-48768000D01*
X128928431Y-48232243D01*
X128685000Y-47867923D01*
X128685000Y-47774118D01*
X130563014Y-47774118D01*
X130633294Y-47935735D01*
X131033401Y-48055740D01*
X131448976Y-48013495D01*
X131636706Y-47935735D01*
X131706986Y-47774118D01*
X131135000Y-47202132D01*
X130563014Y-47774118D01*
X128685000Y-47774118D01*
X128685000Y-47678695D01*
X128692836Y-47640000D01*
X128692836Y-46888401D01*
X130069260Y-46888401D01*
X130111505Y-47303976D01*
X130189265Y-47491706D01*
X130350882Y-47561986D01*
X130922868Y-46990000D01*
X131347132Y-46990000D01*
X131919118Y-47561986D01*
X132080735Y-47491706D01*
X132200740Y-47091599D01*
X132158495Y-46676024D01*
X132080735Y-46488294D01*
X131919118Y-46418014D01*
X131347132Y-46990000D01*
X130922868Y-46990000D01*
X130350882Y-46418014D01*
X130189265Y-46488294D01*
X130069260Y-46888401D01*
X128692836Y-46888401D01*
X128692836Y-46340000D01*
X128667600Y-46205882D01*
X130563014Y-46205882D01*
X131135000Y-46777868D01*
X131706986Y-46205882D01*
X131636706Y-46044265D01*
X131236599Y-45924260D01*
X130821024Y-45966505D01*
X130633294Y-46044265D01*
X130563014Y-46205882D01*
X128667600Y-46205882D01*
X128664944Y-46191769D01*
X128646978Y-46163849D01*
X128605074Y-45953182D01*
X128377462Y-45612538D01*
X128124912Y-45359988D01*
X128039431Y-44930244D01*
X127735949Y-44476050D01*
X125576949Y-42317051D01*
X125122756Y-42013569D01*
X124693012Y-41928088D01*
X124674924Y-41910000D01*
X124820012Y-41764912D01*
X125249756Y-41679431D01*
X125703949Y-41375949D01*
X129069450Y-38010449D01*
X129372931Y-37556256D01*
X129458412Y-37126512D01*
X129967088Y-36617836D01*
X130190000Y-36617836D01*
X130338231Y-36589944D01*
X130474372Y-36502340D01*
X130565704Y-36368671D01*
X130570676Y-36344118D01*
X133968014Y-36344118D01*
X134038294Y-36505735D01*
X134438401Y-36625740D01*
X134853976Y-36583495D01*
X135041706Y-36505735D01*
X135111986Y-36344118D01*
X134540000Y-35772132D01*
X133968014Y-36344118D01*
X130570676Y-36344118D01*
X130597836Y-36210000D01*
X130597836Y-35458401D01*
X133474260Y-35458401D01*
X133516505Y-35873976D01*
X133594265Y-36061706D01*
X133755882Y-36131986D01*
X134327868Y-35560000D01*
X134752132Y-35560000D01*
X135324118Y-36131986D01*
X135485735Y-36061706D01*
X135605740Y-35661599D01*
X135563495Y-35246024D01*
X135485735Y-35058294D01*
X135324118Y-34988014D01*
X134752132Y-35560000D01*
X134327868Y-35560000D01*
X133755882Y-34988014D01*
X133594265Y-35058294D01*
X133474260Y-35458401D01*
X130597836Y-35458401D01*
X130597836Y-34910000D01*
X130572600Y-34775882D01*
X133968014Y-34775882D01*
X134540000Y-35347868D01*
X135111986Y-34775882D01*
X135041706Y-34614265D01*
X134641599Y-34494260D01*
X134226024Y-34536505D01*
X134038294Y-34614265D01*
X133968014Y-34775882D01*
X130572600Y-34775882D01*
X130569944Y-34761769D01*
X130482340Y-34625628D01*
X130348671Y-34534296D01*
X130190000Y-34502164D01*
X129967088Y-34502164D01*
X129521913Y-34056989D01*
X129436431Y-33627244D01*
X129132950Y-33173051D01*
X127354949Y-31395051D01*
X127276540Y-31342660D01*
X126900757Y-31091569D01*
X126365000Y-30985000D01*
X125095000Y-30985000D01*
X124559243Y-31091569D01*
X124202277Y-31330087D01*
X124098671Y-31259296D01*
X123940000Y-31227164D01*
X122440000Y-31227164D01*
X122291769Y-31255056D01*
X122155628Y-31342660D01*
X122064296Y-31476329D01*
X122032164Y-31635000D01*
X122032164Y-33135000D01*
X122060056Y-33283231D01*
X122147660Y-33419372D01*
X122281329Y-33510704D01*
X122440000Y-33542836D01*
X123940000Y-33542836D01*
X124088231Y-33514944D01*
X124203531Y-33440751D01*
X124559243Y-33678431D01*
X125095000Y-33785000D01*
X125785102Y-33785000D01*
X127153051Y-35152950D01*
X127607244Y-35456431D01*
X128036989Y-35541913D01*
X128055076Y-35560000D01*
X127973488Y-35641588D01*
X127543744Y-35727069D01*
X127089551Y-36030550D01*
X123724051Y-39396051D01*
X123420569Y-39850244D01*
X123335088Y-40279988D01*
X122762912Y-40852164D01*
X122540000Y-40852164D01*
X122391769Y-40880056D01*
X122255628Y-40967660D01*
X122164296Y-41101329D01*
X122132164Y-41260000D01*
X122132164Y-42560000D01*
X122160056Y-42708231D01*
X122247660Y-42844372D01*
X122381329Y-42935704D01*
X122540000Y-42967836D01*
X122762912Y-42967836D01*
X123208088Y-43413012D01*
X123293569Y-43842756D01*
X123597051Y-44296949D01*
X125756050Y-46455949D01*
X126210244Y-46759431D01*
X126577164Y-46832416D01*
X126577164Y-47640000D01*
X126585000Y-47681644D01*
X126585000Y-47867923D01*
X126341569Y-48232243D01*
X126235000Y-48768000D01*
X126235000Y-50165000D01*
X126341569Y-50700757D01*
X126559999Y-51027660D01*
X126645051Y-51154949D01*
X131315000Y-55824899D01*
X131315000Y-65968101D01*
X124007102Y-73276000D01*
X122967169Y-73276000D01*
X122936000Y-73269800D01*
X122400243Y-73376369D01*
X122035923Y-73619800D01*
X119844935Y-73619800D01*
X119826286Y-73607339D01*
X119386200Y-73519799D01*
X118946115Y-73607339D01*
X118573027Y-73856627D01*
X117042827Y-75386827D01*
X116793539Y-75759914D01*
X116706000Y-76200000D01*
X116706000Y-83439000D01*
X116793539Y-83879086D01*
X117042827Y-84252173D01*
X117970000Y-85179345D01*
X117970000Y-97790000D01*
X118028993Y-98086580D01*
X118196992Y-98338008D01*
X124066000Y-104207016D01*
X124066000Y-104877735D01*
X124058117Y-104858657D01*
X124033007Y-104732420D01*
X123962122Y-104626333D01*
X123953189Y-104604714D01*
X123936517Y-104588013D01*
X123865008Y-104480992D01*
X113319399Y-93935383D01*
X114541122Y-93935383D01*
X114697448Y-94313720D01*
X114986657Y-94603435D01*
X115364721Y-94760421D01*
X115774083Y-94760778D01*
X116152420Y-94604452D01*
X116442135Y-94315243D01*
X116599121Y-93937179D01*
X116599478Y-93527817D01*
X116443152Y-93149480D01*
X116153943Y-92859765D01*
X115775879Y-92702779D01*
X115366517Y-92702422D01*
X114988180Y-92858748D01*
X114698465Y-93147957D01*
X114541479Y-93526021D01*
X114541122Y-93935383D01*
X113319399Y-93935383D01*
X112408000Y-93023984D01*
X112408000Y-91394283D01*
X114540722Y-91394283D01*
X114697048Y-91772620D01*
X114986257Y-92062335D01*
X115364321Y-92219321D01*
X115773683Y-92219678D01*
X116152020Y-92063352D01*
X116441735Y-91774143D01*
X116598721Y-91396079D01*
X116599078Y-90986717D01*
X116442752Y-90608380D01*
X116153543Y-90318665D01*
X115775479Y-90161679D01*
X115366117Y-90161322D01*
X114987780Y-90317648D01*
X114698065Y-90606857D01*
X114541079Y-90984921D01*
X114540722Y-91394283D01*
X112408000Y-91394283D01*
X112408000Y-89417688D01*
X115013244Y-89417688D01*
X115080907Y-89577136D01*
X115473350Y-89693608D01*
X115880492Y-89651032D01*
X116058893Y-89577136D01*
X116126556Y-89417688D01*
X115569900Y-88861032D01*
X115013244Y-89417688D01*
X112408000Y-89417688D01*
X112408000Y-88552350D01*
X114525192Y-88552350D01*
X114567768Y-88959492D01*
X114641664Y-89137893D01*
X114801112Y-89205556D01*
X115357768Y-88648900D01*
X115782032Y-88648900D01*
X116338688Y-89205556D01*
X116498136Y-89137893D01*
X116614608Y-88745450D01*
X116572032Y-88338308D01*
X116498136Y-88159907D01*
X116338688Y-88092244D01*
X115782032Y-88648900D01*
X115357768Y-88648900D01*
X114801112Y-88092244D01*
X114641664Y-88159907D01*
X114525192Y-88552350D01*
X112408000Y-88552350D01*
X112408000Y-87880112D01*
X115013244Y-87880112D01*
X115569900Y-88436768D01*
X116126556Y-87880112D01*
X116058893Y-87720664D01*
X115666450Y-87604192D01*
X115259308Y-87646768D01*
X115080907Y-87720664D01*
X115013244Y-87880112D01*
X112408000Y-87880112D01*
X112408000Y-86310383D01*
X114541122Y-86310383D01*
X114697448Y-86688720D01*
X114986657Y-86978435D01*
X115364721Y-87135421D01*
X115774083Y-87135778D01*
X116152420Y-86979452D01*
X116442135Y-86690243D01*
X116599121Y-86312179D01*
X116599478Y-85902817D01*
X116443152Y-85524480D01*
X116153943Y-85234765D01*
X115775879Y-85077779D01*
X115366517Y-85077422D01*
X114988180Y-85233748D01*
X114698465Y-85522957D01*
X114541479Y-85901021D01*
X114541122Y-86310383D01*
X112408000Y-86310383D01*
X112408000Y-84395016D01*
X113033433Y-83769583D01*
X114541522Y-83769583D01*
X114697848Y-84147920D01*
X114987057Y-84437635D01*
X115365121Y-84594621D01*
X115774483Y-84594978D01*
X116152820Y-84438652D01*
X116442535Y-84149443D01*
X116599521Y-83771379D01*
X116599878Y-83362017D01*
X116443552Y-82983680D01*
X116154343Y-82693965D01*
X115776279Y-82536979D01*
X115366917Y-82536622D01*
X114988580Y-82692948D01*
X114698865Y-82982157D01*
X114541879Y-83360221D01*
X114541522Y-83769583D01*
X113033433Y-83769583D01*
X114946604Y-81856412D01*
X114986657Y-81896535D01*
X115078586Y-81934707D01*
X115168482Y-81994774D01*
X115273595Y-82015682D01*
X115364721Y-82053521D01*
X115464262Y-82053608D01*
X115570300Y-82074700D01*
X115675413Y-82053792D01*
X115774083Y-82053878D01*
X115866077Y-82015867D01*
X115972118Y-81994774D01*
X116061230Y-81935231D01*
X116152420Y-81897552D01*
X116222867Y-81827228D01*
X116312762Y-81767162D01*
X116372303Y-81678053D01*
X116442135Y-81608343D01*
X116480307Y-81516414D01*
X116540374Y-81426518D01*
X116561282Y-81321405D01*
X116599121Y-81230279D01*
X116599208Y-81130738D01*
X116620300Y-81024700D01*
X116620300Y-78483100D01*
X116599392Y-78377987D01*
X116599478Y-78279317D01*
X116561467Y-78187323D01*
X116540374Y-78081282D01*
X116480831Y-77992170D01*
X116443152Y-77900980D01*
X116372828Y-77830533D01*
X116312762Y-77740638D01*
X116223653Y-77681097D01*
X116153943Y-77611265D01*
X116062014Y-77573093D01*
X115972118Y-77513026D01*
X115867005Y-77492118D01*
X115775879Y-77454279D01*
X115676338Y-77454192D01*
X115570300Y-77433100D01*
X115465187Y-77454008D01*
X115366517Y-77453922D01*
X115274523Y-77491933D01*
X115168482Y-77513026D01*
X115079370Y-77572569D01*
X115053883Y-77583100D01*
X113950152Y-77583100D01*
X113890050Y-77493151D01*
X112541482Y-76144583D01*
X114541522Y-76144583D01*
X114697848Y-76522920D01*
X114987057Y-76812635D01*
X115365121Y-76969621D01*
X115774483Y-76969978D01*
X116152820Y-76813652D01*
X116442535Y-76524443D01*
X116599521Y-76146379D01*
X116599878Y-75737017D01*
X116443552Y-75358680D01*
X116154343Y-75068965D01*
X115776279Y-74911979D01*
X115366917Y-74911622D01*
X114988580Y-75067948D01*
X114698865Y-75357157D01*
X114541879Y-75735221D01*
X114541522Y-76144583D01*
X112541482Y-76144583D01*
X111382000Y-74985102D01*
X111382000Y-73603583D01*
X114541122Y-73603583D01*
X114697448Y-73981920D01*
X114986657Y-74271635D01*
X115364721Y-74428621D01*
X115774083Y-74428978D01*
X116152420Y-74272652D01*
X116442135Y-73983443D01*
X116599121Y-73605379D01*
X116599478Y-73196017D01*
X116443152Y-72817680D01*
X116153943Y-72527965D01*
X115775879Y-72370979D01*
X115366517Y-72370622D01*
X114988180Y-72526948D01*
X114698465Y-72816157D01*
X114541479Y-73194221D01*
X114541122Y-73603583D01*
X111382000Y-73603583D01*
X111382000Y-64516000D01*
X112255000Y-64516000D01*
X112255000Y-71374000D01*
X112279890Y-71499134D01*
X112279870Y-71522530D01*
X112288883Y-71544343D01*
X112313993Y-71670580D01*
X112384878Y-71776667D01*
X112393811Y-71798286D01*
X112410483Y-71814987D01*
X112481992Y-71922008D01*
X113243992Y-72684008D01*
X113350078Y-72754892D01*
X113366605Y-72771448D01*
X113388400Y-72780498D01*
X113495421Y-72852007D01*
X113620558Y-72876899D01*
X113642161Y-72885869D01*
X113665758Y-72885890D01*
X113792000Y-72911001D01*
X113917137Y-72886110D01*
X113940530Y-72886130D01*
X113962341Y-72877118D01*
X114088580Y-72852007D01*
X114194667Y-72781122D01*
X114216286Y-72772189D01*
X114232987Y-72755517D01*
X114340008Y-72684008D01*
X114410893Y-72577921D01*
X114427448Y-72561395D01*
X114436497Y-72539601D01*
X114508007Y-72432580D01*
X114527917Y-72332483D01*
X119620722Y-72332483D01*
X119777048Y-72710820D01*
X120066257Y-73000535D01*
X120444321Y-73157521D01*
X120853683Y-73157878D01*
X121232020Y-73001552D01*
X121521735Y-72712343D01*
X121678721Y-72334279D01*
X121679078Y-71924917D01*
X121522752Y-71546580D01*
X121233543Y-71256865D01*
X120855479Y-71099879D01*
X120446117Y-71099522D01*
X120067780Y-71255848D01*
X119778065Y-71545057D01*
X119621079Y-71923121D01*
X119620722Y-72332483D01*
X114527917Y-72332483D01*
X114532899Y-72307442D01*
X114541869Y-72285839D01*
X114541890Y-72262242D01*
X114567001Y-72136000D01*
X114542110Y-72010864D01*
X114542130Y-71987470D01*
X114533117Y-71965658D01*
X114508007Y-71839421D01*
X114437122Y-71733335D01*
X114428189Y-71711714D01*
X114411517Y-71695012D01*
X114366399Y-71627488D01*
X115013244Y-71627488D01*
X115080907Y-71786936D01*
X115473350Y-71903408D01*
X115880492Y-71860832D01*
X116058893Y-71786936D01*
X116126556Y-71627488D01*
X115569900Y-71070832D01*
X115013244Y-71627488D01*
X114366399Y-71627488D01*
X114340008Y-71587992D01*
X113805000Y-71052984D01*
X113805000Y-70762150D01*
X114525192Y-70762150D01*
X114567768Y-71169292D01*
X114641664Y-71347693D01*
X114801112Y-71415356D01*
X115357768Y-70858700D01*
X115782032Y-70858700D01*
X116338688Y-71415356D01*
X116498136Y-71347693D01*
X116614608Y-70955250D01*
X116572032Y-70548108D01*
X116498136Y-70369707D01*
X116338688Y-70302044D01*
X115782032Y-70858700D01*
X115357768Y-70858700D01*
X114801112Y-70302044D01*
X114641664Y-70369707D01*
X114525192Y-70762150D01*
X113805000Y-70762150D01*
X113805000Y-70089912D01*
X115013244Y-70089912D01*
X115569900Y-70646568D01*
X116126556Y-70089912D01*
X116058893Y-69930464D01*
X115666450Y-69813992D01*
X115259308Y-69856568D01*
X115080907Y-69930464D01*
X115013244Y-70089912D01*
X113805000Y-70089912D01*
X113805000Y-69790883D01*
X119620722Y-69790883D01*
X119777048Y-70169220D01*
X120066257Y-70458935D01*
X120444321Y-70615921D01*
X120853683Y-70616278D01*
X121232020Y-70459952D01*
X121521735Y-70170743D01*
X121678721Y-69792679D01*
X121679078Y-69383317D01*
X121522752Y-69004980D01*
X121233543Y-68715265D01*
X120855479Y-68558279D01*
X120446117Y-68557922D01*
X120067780Y-68714248D01*
X119778065Y-69003457D01*
X119621079Y-69381521D01*
X119620722Y-69790883D01*
X113805000Y-69790883D01*
X113805000Y-68520883D01*
X114540722Y-68520883D01*
X114697048Y-68899220D01*
X114986257Y-69188935D01*
X115364321Y-69345921D01*
X115773683Y-69346278D01*
X116152020Y-69189952D01*
X116441735Y-68900743D01*
X116598721Y-68522679D01*
X116599078Y-68113317D01*
X116442752Y-67734980D01*
X116153543Y-67445265D01*
X115775479Y-67288279D01*
X115366117Y-67287922D01*
X114987780Y-67444248D01*
X114698065Y-67733457D01*
X114541079Y-68111521D01*
X114540722Y-68520883D01*
X113805000Y-68520883D01*
X113805000Y-67248583D01*
X119621122Y-67248583D01*
X119777448Y-67626920D01*
X120066657Y-67916635D01*
X120444721Y-68073621D01*
X120854083Y-68073978D01*
X121232420Y-67917652D01*
X121522135Y-67628443D01*
X121679121Y-67250379D01*
X121679478Y-66841017D01*
X121523152Y-66462680D01*
X121233943Y-66172965D01*
X120855879Y-66015979D01*
X120446517Y-66015622D01*
X120068180Y-66171948D01*
X119778465Y-66461157D01*
X119621479Y-66839221D01*
X119621122Y-67248583D01*
X113805000Y-67248583D01*
X113805000Y-65978583D01*
X114541122Y-65978583D01*
X114697448Y-66356920D01*
X114986657Y-66646635D01*
X115364721Y-66803621D01*
X115774083Y-66803978D01*
X116152420Y-66647652D01*
X116442135Y-66358443D01*
X116599121Y-65980379D01*
X116599478Y-65571017D01*
X116443152Y-65192680D01*
X116153943Y-64902965D01*
X115775879Y-64745979D01*
X115366517Y-64745622D01*
X114988180Y-64901948D01*
X114698465Y-65191157D01*
X114541479Y-65569221D01*
X114541122Y-65978583D01*
X113805000Y-65978583D01*
X113805000Y-64837016D01*
X115229005Y-63413010D01*
X115229008Y-63413008D01*
X115397007Y-63161580D01*
X115406795Y-63112374D01*
X115456001Y-62865000D01*
X115456000Y-62864995D01*
X115456000Y-60739295D01*
X124726584Y-60739295D01*
X125091192Y-61621715D01*
X125765734Y-62297435D01*
X126647516Y-62663583D01*
X127602295Y-62664416D01*
X128484715Y-62299808D01*
X129160435Y-61625266D01*
X129526583Y-60743484D01*
X129527416Y-59788705D01*
X129162808Y-58906285D01*
X128488266Y-58230565D01*
X127606484Y-57864417D01*
X126651705Y-57863584D01*
X125769285Y-58228192D01*
X125093565Y-58902734D01*
X124727417Y-59784516D01*
X124726584Y-60739295D01*
X115456000Y-60739295D01*
X115456000Y-56140016D01*
X117230507Y-54365508D01*
X117301391Y-54259423D01*
X117317948Y-54242895D01*
X117326998Y-54221100D01*
X117398507Y-54114080D01*
X117423398Y-53988943D01*
X117432369Y-53967339D01*
X117432390Y-53943739D01*
X117457500Y-53817500D01*
X117432610Y-53692367D01*
X117432630Y-53668970D01*
X117423617Y-53647156D01*
X117398507Y-53520921D01*
X117327624Y-53414837D01*
X117318689Y-53393214D01*
X117302014Y-53376510D01*
X117230507Y-53269493D01*
X117124425Y-53198611D01*
X117107895Y-53182052D01*
X117086097Y-53173001D01*
X116979079Y-53101493D01*
X116853944Y-53076602D01*
X116832339Y-53067631D01*
X116808739Y-53067610D01*
X116682500Y-53042500D01*
X116557366Y-53067390D01*
X116533970Y-53067370D01*
X116512157Y-53076383D01*
X116385920Y-53101493D01*
X116279835Y-53172377D01*
X116258214Y-53181311D01*
X116241512Y-53197984D01*
X116134492Y-53269493D01*
X114132992Y-55270992D01*
X113964993Y-55522420D01*
X113906000Y-55819000D01*
X113906000Y-62543985D01*
X112481992Y-63967992D01*
X112313993Y-64219420D01*
X112255000Y-64516000D01*
X111382000Y-64516000D01*
X111382000Y-64270398D01*
X112432450Y-63219949D01*
X112669619Y-62865000D01*
X112735931Y-62765757D01*
X112842500Y-62230000D01*
X112842500Y-53094398D01*
X114344949Y-51591950D01*
X114648431Y-51137757D01*
X114670331Y-51027660D01*
X114755000Y-50602000D01*
X114755000Y-49093000D01*
X114754254Y-49089250D01*
X114755000Y-49085500D01*
X114648431Y-48549743D01*
X114344949Y-48095551D01*
X114255000Y-48035449D01*
X114255000Y-47560575D01*
X114404818Y-47199774D01*
X114405182Y-46782058D01*
X114405000Y-46781618D01*
X114405000Y-46324898D01*
X116940949Y-43788950D01*
X117244431Y-43334757D01*
X117249952Y-43307000D01*
X117318975Y-42960000D01*
X118189084Y-42960000D01*
X118397942Y-42960182D01*
X118784000Y-42800666D01*
X119079628Y-42505554D01*
X119239818Y-42119774D01*
X119240182Y-41702058D01*
X119080666Y-41316000D01*
X118785554Y-41020372D01*
X118399774Y-40860182D01*
X117982058Y-40859818D01*
X117981618Y-40860000D01*
X117303062Y-40860000D01*
X117244431Y-40565243D01*
X116940949Y-40111051D01*
X116799309Y-40016410D01*
X112741092Y-35958194D01*
X112646449Y-35816551D01*
X112294028Y-35581070D01*
X112519449Y-35430449D01*
X114164899Y-33785000D01*
X116078000Y-33785000D01*
X116613757Y-33678431D01*
X116978077Y-33435000D01*
X117639902Y-33435000D01*
X117880247Y-33534800D01*
X118337746Y-33535199D01*
X118760572Y-33360491D01*
X118879263Y-33242006D01*
X120005126Y-33242006D01*
X120087819Y-33413970D01*
X120524382Y-33550781D01*
X120980070Y-33510114D01*
X121212181Y-33413970D01*
X121294874Y-33242006D01*
X120650000Y-32597132D01*
X120005126Y-33242006D01*
X118879263Y-33242006D01*
X119084354Y-33037273D01*
X119259800Y-32614753D01*
X119260109Y-32259382D01*
X119484219Y-32259382D01*
X119524886Y-32715070D01*
X119621030Y-32947181D01*
X119792994Y-33029874D01*
X120437868Y-32385000D01*
X120862132Y-32385000D01*
X121507006Y-33029874D01*
X121678970Y-32947181D01*
X121815781Y-32510618D01*
X121775114Y-32054930D01*
X121678970Y-31822819D01*
X121507006Y-31740126D01*
X120862132Y-32385000D01*
X120437868Y-32385000D01*
X119792994Y-31740126D01*
X119621030Y-31822819D01*
X119484219Y-32259382D01*
X119260109Y-32259382D01*
X119260199Y-32157254D01*
X119085491Y-31734428D01*
X118879417Y-31527994D01*
X120005126Y-31527994D01*
X120650000Y-32172868D01*
X121294874Y-31527994D01*
X121212181Y-31356030D01*
X120775618Y-31219219D01*
X120319930Y-31259886D01*
X120087819Y-31356030D01*
X120005126Y-31527994D01*
X118879417Y-31527994D01*
X118762273Y-31410646D01*
X118339753Y-31235200D01*
X117882254Y-31234801D01*
X117639754Y-31335000D01*
X116978077Y-31335000D01*
X116613757Y-31091569D01*
X116078000Y-30985000D01*
X113585000Y-30985000D01*
X113049243Y-31091569D01*
X112898245Y-31192463D01*
X112595051Y-31395050D01*
X110539551Y-33450551D01*
X110236069Y-33904744D01*
X110150588Y-34334488D01*
X109668186Y-34816890D01*
X109520372Y-34964446D01*
X109360182Y-35350226D01*
X109359818Y-35767942D01*
X109519334Y-36154000D01*
X109814446Y-36449628D01*
X109814887Y-36449811D01*
X110265917Y-36900841D01*
X110363069Y-37389257D01*
X110666551Y-37843449D01*
X114551000Y-41727899D01*
X114551000Y-42219101D01*
X112365051Y-44405051D01*
X112061569Y-44859244D01*
X111955001Y-45395000D01*
X112061569Y-45930756D01*
X112305000Y-46295076D01*
X112305000Y-46989084D01*
X112304818Y-47197942D01*
X112455000Y-47561410D01*
X112455000Y-48030438D01*
X112357551Y-48095551D01*
X112054069Y-48549743D01*
X111947500Y-49085500D01*
X111955000Y-49123205D01*
X111955000Y-50022101D01*
X110452551Y-51524551D01*
X110149069Y-51978743D01*
X110042500Y-52514500D01*
X110042500Y-61650101D01*
X108992051Y-62700551D01*
X108688569Y-63154743D01*
X108582000Y-63690500D01*
X95295000Y-63690500D01*
X95295000Y-51320000D01*
X97902164Y-51320000D01*
X97902164Y-52820000D01*
X97930056Y-52968231D01*
X98017660Y-53104372D01*
X98151329Y-53195704D01*
X98310000Y-53227836D01*
X99810000Y-53227836D01*
X99958231Y-53199944D01*
X100094372Y-53112340D01*
X100185704Y-52978671D01*
X100217836Y-52820000D01*
X100217836Y-51320000D01*
X100189944Y-51171769D01*
X100102340Y-51035628D01*
X99968671Y-50944296D01*
X99810000Y-50912164D01*
X98310000Y-50912164D01*
X98161769Y-50940056D01*
X98025628Y-51027660D01*
X97934296Y-51161329D01*
X97902164Y-51320000D01*
X95295000Y-51320000D01*
X95295000Y-50387006D01*
X98415126Y-50387006D01*
X98497819Y-50558970D01*
X98934382Y-50695781D01*
X99390070Y-50655114D01*
X99622181Y-50558970D01*
X99704874Y-50387006D01*
X99060000Y-49742132D01*
X98415126Y-50387006D01*
X95295000Y-50387006D01*
X95295000Y-49404382D01*
X97894219Y-49404382D01*
X97934886Y-49860070D01*
X98031030Y-50092181D01*
X98202994Y-50174874D01*
X98847868Y-49530000D01*
X99272132Y-49530000D01*
X99917006Y-50174874D01*
X100088970Y-50092181D01*
X100225781Y-49655618D01*
X100185114Y-49199930D01*
X100088970Y-48967819D01*
X99917006Y-48885126D01*
X99272132Y-49530000D01*
X98847868Y-49530000D01*
X98202994Y-48885126D01*
X98031030Y-48967819D01*
X97894219Y-49404382D01*
X95295000Y-49404382D01*
X95295000Y-48672994D01*
X98415126Y-48672994D01*
X99060000Y-49317868D01*
X99704874Y-48672994D01*
X99622181Y-48501030D01*
X99185618Y-48364219D01*
X98729930Y-48404886D01*
X98497819Y-48501030D01*
X98415126Y-48672994D01*
X95295000Y-48672994D01*
X95295000Y-47217746D01*
X97909801Y-47217746D01*
X98084509Y-47640572D01*
X98407727Y-47964354D01*
X98830247Y-48139800D01*
X99287746Y-48140199D01*
X99710572Y-47965491D01*
X100034354Y-47642273D01*
X100201392Y-47240000D01*
X108805000Y-47240000D01*
X108805000Y-47719565D01*
X108865896Y-47866582D01*
X108978418Y-47979104D01*
X109125435Y-48040000D01*
X109605000Y-48040000D01*
X109705000Y-47940000D01*
X109705000Y-47140000D01*
X110005000Y-47140000D01*
X110005000Y-47940000D01*
X110105000Y-48040000D01*
X110584565Y-48040000D01*
X110731582Y-47979104D01*
X110844104Y-47866582D01*
X110905000Y-47719565D01*
X110905000Y-47240000D01*
X110805000Y-47140000D01*
X110005000Y-47140000D01*
X109705000Y-47140000D01*
X108905000Y-47140000D01*
X108805000Y-47240000D01*
X100201392Y-47240000D01*
X100209800Y-47219753D01*
X100210199Y-46762254D01*
X100035491Y-46339428D01*
X99956636Y-46260435D01*
X108805000Y-46260435D01*
X108805000Y-46740000D01*
X108905000Y-46840000D01*
X109705000Y-46840000D01*
X109705000Y-46040000D01*
X110005000Y-46040000D01*
X110005000Y-46840000D01*
X110805000Y-46840000D01*
X110905000Y-46740000D01*
X110905000Y-46260435D01*
X110844104Y-46113418D01*
X110731582Y-46000896D01*
X110584565Y-45940000D01*
X110105000Y-45940000D01*
X110005000Y-46040000D01*
X109705000Y-46040000D01*
X109605000Y-45940000D01*
X109125435Y-45940000D01*
X108978418Y-46000896D01*
X108865896Y-46113418D01*
X108805000Y-46260435D01*
X99956636Y-46260435D01*
X99712273Y-46015646D01*
X99289753Y-45840200D01*
X98832254Y-45839801D01*
X98409428Y-46014509D01*
X98085646Y-46337727D01*
X97910200Y-46760247D01*
X97909801Y-47217746D01*
X95295000Y-47217746D01*
X95295000Y-35810000D01*
X104360000Y-35810000D01*
X104360000Y-36289565D01*
X104420896Y-36436582D01*
X104533418Y-36549104D01*
X104680435Y-36610000D01*
X105160000Y-36610000D01*
X105260000Y-36510000D01*
X105260000Y-35710000D01*
X105560000Y-35710000D01*
X105560000Y-36510000D01*
X105660000Y-36610000D01*
X106139565Y-36610000D01*
X106286582Y-36549104D01*
X106399104Y-36436582D01*
X106460000Y-36289565D01*
X106460000Y-35810000D01*
X106360000Y-35710000D01*
X105560000Y-35710000D01*
X105260000Y-35710000D01*
X104460000Y-35710000D01*
X104360000Y-35810000D01*
X95295000Y-35810000D01*
X95295000Y-34830435D01*
X104360000Y-34830435D01*
X104360000Y-35310000D01*
X104460000Y-35410000D01*
X105260000Y-35410000D01*
X105260000Y-34610000D01*
X105560000Y-34610000D01*
X105560000Y-35410000D01*
X106360000Y-35410000D01*
X106460000Y-35310000D01*
X106460000Y-34830435D01*
X106399104Y-34683418D01*
X106286582Y-34570896D01*
X106139565Y-34510000D01*
X105660000Y-34510000D01*
X105560000Y-34610000D01*
X105260000Y-34610000D01*
X105160000Y-34510000D01*
X104680435Y-34510000D01*
X104533418Y-34570896D01*
X104420896Y-34683418D01*
X104360000Y-34830435D01*
X95295000Y-34830435D01*
X95295000Y-31999402D01*
X95641871Y-31998844D01*
X96954327Y-31455207D01*
X97336450Y-31028582D01*
X96599145Y-30291277D01*
X96811277Y-30079145D01*
X97548582Y-30816450D01*
X97975207Y-30434327D01*
X98521146Y-29110296D01*
X98520607Y-28775000D01*
X142120598Y-28775000D01*
X142121156Y-29121871D01*
X142121156Y-29121871D01*
G37*
X142121156Y-29121871D02*
X142664793Y-30434327D01*
X143091418Y-30816450D01*
X143828723Y-30079145D01*
X144040855Y-30291277D01*
X143303550Y-31028582D01*
X143685673Y-31455207D01*
X145009704Y-32001146D01*
X145345000Y-32000607D01*
X145345000Y-126400598D01*
X144998129Y-126401156D01*
X143685673Y-126944793D01*
X143303550Y-127371418D01*
X144026096Y-128093964D01*
X143812018Y-128304150D01*
X143091418Y-127583550D01*
X142664793Y-127965673D01*
X142118854Y-129289704D01*
X142119393Y-129625000D01*
X98519402Y-129625000D01*
X98518844Y-129278129D01*
X97975207Y-127965673D01*
X97548582Y-127583550D01*
X96826036Y-128306096D01*
X96615850Y-128092018D01*
X97336450Y-127371418D01*
X96954327Y-126944793D01*
X95630296Y-126398854D01*
X95295000Y-126399393D01*
X95295000Y-125250000D01*
X115162164Y-125250000D01*
X115162164Y-126750000D01*
X115190056Y-126898231D01*
X115277660Y-127034372D01*
X115411329Y-127125704D01*
X115570000Y-127157836D01*
X117070000Y-127157836D01*
X117218231Y-127129944D01*
X117354372Y-127042340D01*
X117445704Y-126908671D01*
X117477836Y-126750000D01*
X117477836Y-126326518D01*
X117757313Y-126326518D01*
X117966203Y-126723643D01*
X118311165Y-127010600D01*
X118533484Y-127102672D01*
X118710000Y-127039230D01*
X118710000Y-126150000D01*
X119010000Y-126150000D01*
X119010000Y-127039230D01*
X119186516Y-127102672D01*
X119408835Y-127010600D01*
X119753797Y-126723643D01*
X119962687Y-126326518D01*
X119900190Y-126150000D01*
X119010000Y-126150000D01*
X118710000Y-126150000D01*
X117819810Y-126150000D01*
X117757313Y-126326518D01*
X117477836Y-126326518D01*
X117477836Y-125673482D01*
X117757313Y-125673482D01*
X117819810Y-125850000D01*
X118710000Y-125850000D01*
X118710000Y-124960770D01*
X119010000Y-124960770D01*
X119010000Y-125850000D01*
X119900190Y-125850000D01*
X119962687Y-125673482D01*
X119753797Y-125276357D01*
X119722113Y-125250000D01*
X120622164Y-125250000D01*
X120622164Y-126750000D01*
X120650056Y-126898231D01*
X120737660Y-127034372D01*
X120871329Y-127125704D01*
X121030000Y-127157836D01*
X122530000Y-127157836D01*
X122678231Y-127129944D01*
X122814372Y-127042340D01*
X122905704Y-126908671D01*
X122937836Y-126750000D01*
X122937836Y-126326518D01*
X123217313Y-126326518D01*
X123426203Y-126723643D01*
X123771165Y-127010600D01*
X123993484Y-127102672D01*
X124170000Y-127039230D01*
X124170000Y-126150000D01*
X124470000Y-126150000D01*
X124470000Y-127039230D01*
X124646516Y-127102672D01*
X124868835Y-127010600D01*
X125213797Y-126723643D01*
X125422687Y-126326518D01*
X125360190Y-126150000D01*
X124470000Y-126150000D01*
X124170000Y-126150000D01*
X123279810Y-126150000D01*
X123217313Y-126326518D01*
X122937836Y-126326518D01*
X122937836Y-125673482D01*
X123217313Y-125673482D01*
X123279810Y-125850000D01*
X124170000Y-125850000D01*
X124170000Y-124960770D01*
X124470000Y-124960770D01*
X124470000Y-125850000D01*
X125360190Y-125850000D01*
X125422687Y-125673482D01*
X125213797Y-125276357D01*
X124868835Y-124989400D01*
X124646516Y-124897328D01*
X124470000Y-124960770D01*
X124170000Y-124960770D01*
X123993484Y-124897328D01*
X123771165Y-124989400D01*
X123426203Y-125276357D01*
X123217313Y-125673482D01*
X122937836Y-125673482D01*
X122937836Y-125250000D01*
X122909944Y-125101769D01*
X122822340Y-124965628D01*
X122688671Y-124874296D01*
X122530000Y-124842164D01*
X121030000Y-124842164D01*
X120881769Y-124870056D01*
X120745628Y-124957660D01*
X120654296Y-125091329D01*
X120622164Y-125250000D01*
X119722113Y-125250000D01*
X119408835Y-124989400D01*
X119186516Y-124897328D01*
X119010000Y-124960770D01*
X118710000Y-124960770D01*
X118533484Y-124897328D01*
X118311165Y-124989400D01*
X117966203Y-125276357D01*
X117757313Y-125673482D01*
X117477836Y-125673482D01*
X117477836Y-125250000D01*
X117449944Y-125101769D01*
X117362340Y-124965628D01*
X117228671Y-124874296D01*
X117070000Y-124842164D01*
X115570000Y-124842164D01*
X115421769Y-124870056D01*
X115285628Y-124957660D01*
X115194296Y-125091329D01*
X115162164Y-125250000D01*
X95295000Y-125250000D01*
X95295000Y-113327455D01*
X140339677Y-113327455D01*
X140471631Y-113540939D01*
X141053592Y-113744779D01*
X141669261Y-113710396D01*
X142078369Y-113540939D01*
X142210323Y-113327455D01*
X141275000Y-112392132D01*
X140339677Y-113327455D01*
X95295000Y-113327455D01*
X95295000Y-111010000D01*
X97902164Y-111010000D01*
X97902164Y-112510000D01*
X97930056Y-112658231D01*
X98017660Y-112794372D01*
X98151329Y-112885704D01*
X98310000Y-112917836D01*
X99810000Y-112917836D01*
X99958231Y-112889944D01*
X100094372Y-112802340D01*
X100185704Y-112668671D01*
X100217836Y-112510000D01*
X100217836Y-111010000D01*
X100189944Y-110861769D01*
X100102340Y-110725628D01*
X99968671Y-110634296D01*
X99810000Y-110602164D01*
X98310000Y-110602164D01*
X98161769Y-110630056D01*
X98025628Y-110717660D01*
X97934296Y-110851329D01*
X97902164Y-111010000D01*
X95295000Y-111010000D01*
X95295000Y-110077006D01*
X98415126Y-110077006D01*
X98497819Y-110248970D01*
X98934382Y-110385781D01*
X99390070Y-110345114D01*
X99622181Y-110248970D01*
X99704874Y-110077006D01*
X99060000Y-109432132D01*
X98415126Y-110077006D01*
X95295000Y-110077006D01*
X95295000Y-109094382D01*
X97894219Y-109094382D01*
X97934886Y-109550070D01*
X98031030Y-109782181D01*
X98202994Y-109864874D01*
X98847868Y-109220000D01*
X99272132Y-109220000D01*
X99917006Y-109864874D01*
X100088970Y-109782181D01*
X100225781Y-109345618D01*
X100185114Y-108889930D01*
X100088970Y-108657819D01*
X99917006Y-108575126D01*
X99272132Y-109220000D01*
X98847868Y-109220000D01*
X98202994Y-108575126D01*
X98031030Y-108657819D01*
X97894219Y-109094382D01*
X95295000Y-109094382D01*
X95295000Y-108362994D01*
X98415126Y-108362994D01*
X99060000Y-109007868D01*
X99704874Y-108362994D01*
X99622181Y-108191030D01*
X99185618Y-108054219D01*
X98729930Y-108094886D01*
X98497819Y-108191030D01*
X98415126Y-108362994D01*
X95295000Y-108362994D01*
X95295000Y-106907746D01*
X97909801Y-106907746D01*
X98084509Y-107330572D01*
X98407727Y-107654354D01*
X98830247Y-107829800D01*
X99287746Y-107830199D01*
X99710572Y-107655491D01*
X100034354Y-107332273D01*
X100209800Y-106909753D01*
X100210199Y-106452254D01*
X100035491Y-106029428D01*
X99712273Y-105705646D01*
X99289753Y-105530200D01*
X98832254Y-105529801D01*
X98409428Y-105704509D01*
X98085646Y-106027727D01*
X97910200Y-106450247D01*
X97909801Y-106907746D01*
X95295000Y-106907746D01*
X95295000Y-63690500D01*
X108582000Y-63690500D01*
X108582000Y-75565000D01*
X108688569Y-76100757D01*
X108847735Y-76338965D01*
X108992051Y-76554949D01*
X111910151Y-79473050D01*
X112364344Y-79776532D01*
X112900100Y-79883100D01*
X113435857Y-79776532D01*
X113890050Y-79473050D01*
X113950153Y-79383100D01*
X114520300Y-79383100D01*
X114520300Y-80281924D01*
X114385720Y-80308693D01*
X114134292Y-80476692D01*
X114134290Y-80476695D01*
X111084992Y-83525992D01*
X110916993Y-83777420D01*
X110858000Y-84074000D01*
X110858000Y-93345000D01*
X110916993Y-93641580D01*
X111084992Y-93893008D01*
X122768992Y-105577008D01*
X122875079Y-105647893D01*
X122891605Y-105664448D01*
X122913399Y-105673497D01*
X123020420Y-105745007D01*
X123145557Y-105769898D01*
X123167161Y-105778869D01*
X123190761Y-105778890D01*
X123317000Y-105804000D01*
X123442133Y-105779110D01*
X123465530Y-105779130D01*
X123487344Y-105770117D01*
X123613579Y-105745007D01*
X123719665Y-105674122D01*
X123741286Y-105665189D01*
X123757988Y-105648517D01*
X123865008Y-105577008D01*
X123935892Y-105470922D01*
X123952448Y-105454395D01*
X123961498Y-105432600D01*
X124033007Y-105325579D01*
X124057898Y-105200444D01*
X124066000Y-105180932D01*
X124066000Y-111506000D01*
X124090890Y-111631134D01*
X124090870Y-111654530D01*
X124099883Y-111676343D01*
X124124993Y-111802580D01*
X124195878Y-111908667D01*
X124204811Y-111930286D01*
X124221483Y-111946987D01*
X124292992Y-112054008D01*
X124399079Y-112124893D01*
X124415605Y-112141448D01*
X124437399Y-112150497D01*
X124544420Y-112222007D01*
X124669557Y-112246898D01*
X124691161Y-112255869D01*
X124714761Y-112255890D01*
X124841000Y-112281000D01*
X124966134Y-112256110D01*
X124989530Y-112256130D01*
X125011343Y-112247117D01*
X125137580Y-112222007D01*
X125243667Y-112151122D01*
X125265286Y-112142189D01*
X125281987Y-112125517D01*
X125389008Y-112054008D01*
X125452762Y-111958592D01*
X139710221Y-111958592D01*
X139744604Y-112574261D01*
X139914061Y-112983369D01*
X140127545Y-113115323D01*
X141062868Y-112180000D01*
X141487132Y-112180000D01*
X142422455Y-113115323D01*
X142635939Y-112983369D01*
X142839779Y-112401408D01*
X142805396Y-111785739D01*
X142635939Y-111376631D01*
X142422455Y-111244677D01*
X141487132Y-112180000D01*
X141062868Y-112180000D01*
X140127545Y-111244677D01*
X139914061Y-111376631D01*
X139710221Y-111958592D01*
X125452762Y-111958592D01*
X125459893Y-111947921D01*
X125476448Y-111931395D01*
X125485497Y-111909601D01*
X125557007Y-111802580D01*
X125581898Y-111677443D01*
X125590869Y-111655839D01*
X125590890Y-111632239D01*
X125616000Y-111506000D01*
X125616000Y-111032545D01*
X140339677Y-111032545D01*
X141275000Y-111967868D01*
X142210323Y-111032545D01*
X142078369Y-110819061D01*
X141496408Y-110615221D01*
X140880739Y-110649604D01*
X140471631Y-110819061D01*
X140339677Y-111032545D01*
X125616000Y-111032545D01*
X125616000Y-103886000D01*
X125557007Y-103589420D01*
X125389008Y-103337992D01*
X121790311Y-99739295D01*
X124726584Y-99739295D01*
X125091192Y-100621715D01*
X125765734Y-101297435D01*
X126647516Y-101663583D01*
X127602295Y-101664416D01*
X128484715Y-101299808D01*
X129160435Y-100625266D01*
X129526583Y-99743484D01*
X129527416Y-98788705D01*
X129162808Y-97906285D01*
X128488266Y-97230565D01*
X127606484Y-96864417D01*
X126651705Y-96863584D01*
X125769285Y-97228192D01*
X125093565Y-97902734D01*
X124727417Y-98784516D01*
X124726584Y-99739295D01*
X121790311Y-99739295D01*
X119520000Y-97468984D01*
X119520000Y-92664283D01*
X119620722Y-92664283D01*
X119777048Y-93042620D01*
X120066257Y-93332335D01*
X120444321Y-93489321D01*
X120853683Y-93489678D01*
X121232020Y-93333352D01*
X121521735Y-93044143D01*
X121678721Y-92666079D01*
X121679078Y-92256717D01*
X121522752Y-91878380D01*
X121233543Y-91588665D01*
X120855479Y-91431679D01*
X120446117Y-91431322D01*
X120067780Y-91587648D01*
X119778065Y-91876857D01*
X119621079Y-92254921D01*
X119620722Y-92664283D01*
X119520000Y-92664283D01*
X119520000Y-90122683D01*
X119620722Y-90122683D01*
X119777048Y-90501020D01*
X120066257Y-90790735D01*
X120444321Y-90947721D01*
X120853683Y-90948078D01*
X121232020Y-90791752D01*
X121521735Y-90502543D01*
X121678721Y-90124479D01*
X121679078Y-89715117D01*
X121522752Y-89336780D01*
X121233543Y-89047065D01*
X120855479Y-88890079D01*
X120446117Y-88889722D01*
X120067780Y-89046048D01*
X119778065Y-89335257D01*
X119621079Y-89713321D01*
X119620722Y-90122683D01*
X119520000Y-90122683D01*
X119520000Y-87580383D01*
X119621122Y-87580383D01*
X119777448Y-87958720D01*
X120066657Y-88248435D01*
X120444721Y-88405421D01*
X120854083Y-88405778D01*
X121232420Y-88249452D01*
X121522135Y-87960243D01*
X121679121Y-87582179D01*
X121679478Y-87172817D01*
X121523152Y-86794480D01*
X121233943Y-86504765D01*
X120855879Y-86347779D01*
X120446517Y-86347422D01*
X120068180Y-86503748D01*
X119778465Y-86792957D01*
X119621479Y-87171021D01*
X119621122Y-87580383D01*
X119520000Y-87580383D01*
X119520000Y-85932651D01*
X119692886Y-85898262D01*
X119711537Y-85885800D01*
X120650700Y-85885800D01*
X120755813Y-85864892D01*
X120854483Y-85864978D01*
X120946477Y-85826967D01*
X121052518Y-85805874D01*
X121141630Y-85746331D01*
X121232820Y-85708652D01*
X121303267Y-85638328D01*
X121393162Y-85578262D01*
X121452703Y-85489153D01*
X121522535Y-85419443D01*
X121560707Y-85327514D01*
X121620774Y-85237618D01*
X121641682Y-85132505D01*
X121679521Y-85041379D01*
X121679608Y-84941838D01*
X121700700Y-84835800D01*
X121679792Y-84730687D01*
X121679878Y-84632017D01*
X121641867Y-84540023D01*
X121620774Y-84433982D01*
X121561231Y-84344870D01*
X121523552Y-84253680D01*
X121453228Y-84183233D01*
X121393162Y-84093338D01*
X121304053Y-84033797D01*
X121234343Y-83963965D01*
X121142414Y-83925793D01*
X121052518Y-83865726D01*
X120947405Y-83844818D01*
X120856279Y-83806979D01*
X120756738Y-83806892D01*
X120650700Y-83785800D01*
X119829145Y-83785800D01*
X119006000Y-82962654D01*
X119006000Y-82294700D01*
X119600300Y-82294700D01*
X119621208Y-82399813D01*
X119621122Y-82498483D01*
X119659133Y-82590477D01*
X119680226Y-82696518D01*
X119739769Y-82785630D01*
X119777448Y-82876820D01*
X119847772Y-82947267D01*
X119907838Y-83037162D01*
X119996947Y-83096703D01*
X120066657Y-83166535D01*
X120158586Y-83204707D01*
X120248482Y-83264774D01*
X120353595Y-83285682D01*
X120444721Y-83323521D01*
X120544262Y-83323608D01*
X120650300Y-83344700D01*
X121268085Y-83344700D01*
X121464197Y-83638203D01*
X122080601Y-84050071D01*
X122807700Y-84194700D01*
X127227694Y-84194700D01*
X139375000Y-96342006D01*
X139375000Y-104137606D01*
X139324000Y-104394000D01*
X139468629Y-105121099D01*
X139875000Y-105729276D01*
X139875000Y-106509742D01*
X139725270Y-106870333D01*
X139724732Y-107486961D01*
X139960208Y-108056857D01*
X140395849Y-108493260D01*
X140965333Y-108729730D01*
X141581961Y-108730268D01*
X142151857Y-108494792D01*
X142588260Y-108059151D01*
X142824730Y-107489667D01*
X142825268Y-106873039D01*
X142675000Y-106509362D01*
X142675000Y-105652949D01*
X143030371Y-105121099D01*
X143175000Y-104394000D01*
X143169928Y-104368500D01*
X143175000Y-104343000D01*
X143175000Y-95555000D01*
X143030371Y-94827901D01*
X142618503Y-94211497D01*
X129358203Y-80951197D01*
X129160537Y-80819121D01*
X128741799Y-80539329D01*
X128014700Y-80394700D01*
X122807700Y-80394700D01*
X122080601Y-80539329D01*
X121464197Y-80951197D01*
X121268085Y-81244700D01*
X120650300Y-81244700D01*
X120545187Y-81265608D01*
X120446517Y-81265522D01*
X120354523Y-81303533D01*
X120248482Y-81324626D01*
X120159370Y-81384169D01*
X120068180Y-81421848D01*
X119997733Y-81492172D01*
X119907838Y-81552238D01*
X119848297Y-81641347D01*
X119778465Y-81711057D01*
X119740293Y-81802986D01*
X119680226Y-81892882D01*
X119659318Y-81997995D01*
X119621479Y-82089121D01*
X119621392Y-82188662D01*
X119600300Y-82294700D01*
X119006000Y-82294700D01*
X119006000Y-79956883D01*
X119621122Y-79956883D01*
X119777448Y-80335220D01*
X120066657Y-80624935D01*
X120444721Y-80781921D01*
X120854083Y-80782278D01*
X121232420Y-80625952D01*
X121522135Y-80336743D01*
X121679121Y-79958679D01*
X121679478Y-79549317D01*
X121523152Y-79170980D01*
X121233943Y-78881265D01*
X120855879Y-78724279D01*
X120446517Y-78723922D01*
X120068180Y-78880248D01*
X119778465Y-79169457D01*
X119621479Y-79547521D01*
X119621122Y-79956883D01*
X119006000Y-79956883D01*
X119006000Y-76676346D01*
X119962546Y-75719800D01*
X122026645Y-75719800D01*
X122309874Y-75909048D01*
X122268043Y-75917369D01*
X121903723Y-76160800D01*
X120650700Y-76160800D01*
X120545587Y-76181708D01*
X120446917Y-76181622D01*
X120354923Y-76219633D01*
X120248882Y-76240726D01*
X120159770Y-76300269D01*
X120068580Y-76337948D01*
X119998133Y-76408272D01*
X119908238Y-76468338D01*
X119848697Y-76557447D01*
X119778865Y-76627157D01*
X119740693Y-76719086D01*
X119680626Y-76808982D01*
X119659718Y-76914095D01*
X119621879Y-77005221D01*
X119621792Y-77104762D01*
X119600700Y-77210800D01*
X119621608Y-77315913D01*
X119621522Y-77414583D01*
X119659533Y-77506577D01*
X119680626Y-77612618D01*
X119740169Y-77701730D01*
X119777848Y-77792920D01*
X119848172Y-77863367D01*
X119908238Y-77953262D01*
X119997347Y-78012803D01*
X120067057Y-78082635D01*
X120158986Y-78120807D01*
X120248882Y-78180874D01*
X120353995Y-78201782D01*
X120445121Y-78239621D01*
X120544662Y-78239708D01*
X120650700Y-78260800D01*
X121903723Y-78260800D01*
X122268043Y-78504231D01*
X122803800Y-78610800D01*
X126122051Y-78610800D01*
X126653901Y-78966171D01*
X127381000Y-79110800D01*
X129037200Y-79110800D01*
X129764299Y-78966171D01*
X130380703Y-78554303D01*
X138122503Y-70812503D01*
X138534372Y-70196098D01*
X138679000Y-69469000D01*
X138679000Y-52367455D01*
X140339677Y-52367455D01*
X140471631Y-52580939D01*
X141053592Y-52784779D01*
X141669261Y-52750396D01*
X142078369Y-52580939D01*
X142210323Y-52367455D01*
X141275000Y-51432132D01*
X140339677Y-52367455D01*
X138679000Y-52367455D01*
X138679000Y-51460006D01*
X139140414Y-50998592D01*
X139710221Y-50998592D01*
X139744604Y-51614261D01*
X139914061Y-52023369D01*
X140127545Y-52155323D01*
X141062868Y-51220000D01*
X141487132Y-51220000D01*
X142422455Y-52155323D01*
X142635939Y-52023369D01*
X142839779Y-51441408D01*
X142805396Y-50825739D01*
X142635939Y-50416631D01*
X142422455Y-50284677D01*
X141487132Y-51220000D01*
X141062868Y-51220000D01*
X140127545Y-50284677D01*
X139914061Y-50416631D01*
X139710221Y-50998592D01*
X139140414Y-50998592D01*
X140066461Y-50072545D01*
X140339677Y-50072545D01*
X141275000Y-51007868D01*
X142210323Y-50072545D01*
X142078369Y-49859061D01*
X141496408Y-49655221D01*
X140880739Y-49689604D01*
X140471631Y-49859061D01*
X140339677Y-50072545D01*
X140066461Y-50072545D01*
X140151915Y-49987091D01*
X140281503Y-49900503D01*
X140693371Y-49284099D01*
X140818161Y-48656737D01*
X141791007Y-47683892D01*
X142151857Y-47534792D01*
X142588260Y-47099151D01*
X142824730Y-46529667D01*
X142825268Y-45913039D01*
X142589792Y-45343143D01*
X142154151Y-44906740D01*
X141584667Y-44670270D01*
X140968039Y-44669732D01*
X140398143Y-44905208D01*
X139961740Y-45340849D01*
X139810837Y-45704264D01*
X138891940Y-46623162D01*
X138210901Y-46758629D01*
X137864630Y-46990000D01*
X137594497Y-47170497D01*
X135435497Y-49329497D01*
X135023629Y-49945901D01*
X134879000Y-50673000D01*
X134879000Y-68681994D01*
X128250194Y-75310800D01*
X127381000Y-75310800D01*
X126653901Y-75455429D01*
X126122051Y-75810800D01*
X125360165Y-75810800D01*
X125576949Y-75665949D01*
X133704950Y-67537949D01*
X133893006Y-67256503D01*
X134008431Y-67083757D01*
X134115000Y-66548000D01*
X134115000Y-55245000D01*
X134008431Y-54709243D01*
X133837180Y-54452948D01*
X133704950Y-54255051D01*
X129035000Y-49585102D01*
X129035000Y-48768000D01*
X128928431Y-48232243D01*
X128685000Y-47867923D01*
X128685000Y-47774118D01*
X130563014Y-47774118D01*
X130633294Y-47935735D01*
X131033401Y-48055740D01*
X131448976Y-48013495D01*
X131636706Y-47935735D01*
X131706986Y-47774118D01*
X131135000Y-47202132D01*
X130563014Y-47774118D01*
X128685000Y-47774118D01*
X128685000Y-47678695D01*
X128692836Y-47640000D01*
X128692836Y-46888401D01*
X130069260Y-46888401D01*
X130111505Y-47303976D01*
X130189265Y-47491706D01*
X130350882Y-47561986D01*
X130922868Y-46990000D01*
X131347132Y-46990000D01*
X131919118Y-47561986D01*
X132080735Y-47491706D01*
X132200740Y-47091599D01*
X132158495Y-46676024D01*
X132080735Y-46488294D01*
X131919118Y-46418014D01*
X131347132Y-46990000D01*
X130922868Y-46990000D01*
X130350882Y-46418014D01*
X130189265Y-46488294D01*
X130069260Y-46888401D01*
X128692836Y-46888401D01*
X128692836Y-46340000D01*
X128667600Y-46205882D01*
X130563014Y-46205882D01*
X131135000Y-46777868D01*
X131706986Y-46205882D01*
X131636706Y-46044265D01*
X131236599Y-45924260D01*
X130821024Y-45966505D01*
X130633294Y-46044265D01*
X130563014Y-46205882D01*
X128667600Y-46205882D01*
X128664944Y-46191769D01*
X128646978Y-46163849D01*
X128605074Y-45953182D01*
X128377462Y-45612538D01*
X128124912Y-45359988D01*
X128039431Y-44930244D01*
X127735949Y-44476050D01*
X125576949Y-42317051D01*
X125122756Y-42013569D01*
X124693012Y-41928088D01*
X124674924Y-41910000D01*
X124820012Y-41764912D01*
X125249756Y-41679431D01*
X125703949Y-41375949D01*
X129069450Y-38010449D01*
X129372931Y-37556256D01*
X129458412Y-37126512D01*
X129967088Y-36617836D01*
X130190000Y-36617836D01*
X130338231Y-36589944D01*
X130474372Y-36502340D01*
X130565704Y-36368671D01*
X130570676Y-36344118D01*
X133968014Y-36344118D01*
X134038294Y-36505735D01*
X134438401Y-36625740D01*
X134853976Y-36583495D01*
X135041706Y-36505735D01*
X135111986Y-36344118D01*
X134540000Y-35772132D01*
X133968014Y-36344118D01*
X130570676Y-36344118D01*
X130597836Y-36210000D01*
X130597836Y-35458401D01*
X133474260Y-35458401D01*
X133516505Y-35873976D01*
X133594265Y-36061706D01*
X133755882Y-36131986D01*
X134327868Y-35560000D01*
X134752132Y-35560000D01*
X135324118Y-36131986D01*
X135485735Y-36061706D01*
X135605740Y-35661599D01*
X135563495Y-35246024D01*
X135485735Y-35058294D01*
X135324118Y-34988014D01*
X134752132Y-35560000D01*
X134327868Y-35560000D01*
X133755882Y-34988014D01*
X133594265Y-35058294D01*
X133474260Y-35458401D01*
X130597836Y-35458401D01*
X130597836Y-34910000D01*
X130572600Y-34775882D01*
X133968014Y-34775882D01*
X134540000Y-35347868D01*
X135111986Y-34775882D01*
X135041706Y-34614265D01*
X134641599Y-34494260D01*
X134226024Y-34536505D01*
X134038294Y-34614265D01*
X133968014Y-34775882D01*
X130572600Y-34775882D01*
X130569944Y-34761769D01*
X130482340Y-34625628D01*
X130348671Y-34534296D01*
X130190000Y-34502164D01*
X129967088Y-34502164D01*
X129521913Y-34056989D01*
X129436431Y-33627244D01*
X129132950Y-33173051D01*
X127354949Y-31395051D01*
X127276540Y-31342660D01*
X126900757Y-31091569D01*
X126365000Y-30985000D01*
X125095000Y-30985000D01*
X124559243Y-31091569D01*
X124202277Y-31330087D01*
X124098671Y-31259296D01*
X123940000Y-31227164D01*
X122440000Y-31227164D01*
X122291769Y-31255056D01*
X122155628Y-31342660D01*
X122064296Y-31476329D01*
X122032164Y-31635000D01*
X122032164Y-33135000D01*
X122060056Y-33283231D01*
X122147660Y-33419372D01*
X122281329Y-33510704D01*
X122440000Y-33542836D01*
X123940000Y-33542836D01*
X124088231Y-33514944D01*
X124203531Y-33440751D01*
X124559243Y-33678431D01*
X125095000Y-33785000D01*
X125785102Y-33785000D01*
X127153051Y-35152950D01*
X127607244Y-35456431D01*
X128036989Y-35541913D01*
X128055076Y-35560000D01*
X127973488Y-35641588D01*
X127543744Y-35727069D01*
X127089551Y-36030550D01*
X123724051Y-39396051D01*
X123420569Y-39850244D01*
X123335088Y-40279988D01*
X122762912Y-40852164D01*
X122540000Y-40852164D01*
X122391769Y-40880056D01*
X122255628Y-40967660D01*
X122164296Y-41101329D01*
X122132164Y-41260000D01*
X122132164Y-42560000D01*
X122160056Y-42708231D01*
X122247660Y-42844372D01*
X122381329Y-42935704D01*
X122540000Y-42967836D01*
X122762912Y-42967836D01*
X123208088Y-43413012D01*
X123293569Y-43842756D01*
X123597051Y-44296949D01*
X125756050Y-46455949D01*
X126210244Y-46759431D01*
X126577164Y-46832416D01*
X126577164Y-47640000D01*
X126585000Y-47681644D01*
X126585000Y-47867923D01*
X126341569Y-48232243D01*
X126235000Y-48768000D01*
X126235000Y-50165000D01*
X126341569Y-50700757D01*
X126559999Y-51027660D01*
X126645051Y-51154949D01*
X131315000Y-55824899D01*
X131315000Y-65968101D01*
X124007102Y-73276000D01*
X122967169Y-73276000D01*
X122936000Y-73269800D01*
X122400243Y-73376369D01*
X122035923Y-73619800D01*
X119844935Y-73619800D01*
X119826286Y-73607339D01*
X119386200Y-73519799D01*
X118946115Y-73607339D01*
X118573027Y-73856627D01*
X117042827Y-75386827D01*
X116793539Y-75759914D01*
X116706000Y-76200000D01*
X116706000Y-83439000D01*
X116793539Y-83879086D01*
X117042827Y-84252173D01*
X117970000Y-85179345D01*
X117970000Y-97790000D01*
X118028993Y-98086580D01*
X118196992Y-98338008D01*
X124066000Y-104207016D01*
X124066000Y-104877735D01*
X124058117Y-104858657D01*
X124033007Y-104732420D01*
X123962122Y-104626333D01*
X123953189Y-104604714D01*
X123936517Y-104588013D01*
X123865008Y-104480992D01*
X113319399Y-93935383D01*
X114541122Y-93935383D01*
X114697448Y-94313720D01*
X114986657Y-94603435D01*
X115364721Y-94760421D01*
X115774083Y-94760778D01*
X116152420Y-94604452D01*
X116442135Y-94315243D01*
X116599121Y-93937179D01*
X116599478Y-93527817D01*
X116443152Y-93149480D01*
X116153943Y-92859765D01*
X115775879Y-92702779D01*
X115366517Y-92702422D01*
X114988180Y-92858748D01*
X114698465Y-93147957D01*
X114541479Y-93526021D01*
X114541122Y-93935383D01*
X113319399Y-93935383D01*
X112408000Y-93023984D01*
X112408000Y-91394283D01*
X114540722Y-91394283D01*
X114697048Y-91772620D01*
X114986257Y-92062335D01*
X115364321Y-92219321D01*
X115773683Y-92219678D01*
X116152020Y-92063352D01*
X116441735Y-91774143D01*
X116598721Y-91396079D01*
X116599078Y-90986717D01*
X116442752Y-90608380D01*
X116153543Y-90318665D01*
X115775479Y-90161679D01*
X115366117Y-90161322D01*
X114987780Y-90317648D01*
X114698065Y-90606857D01*
X114541079Y-90984921D01*
X114540722Y-91394283D01*
X112408000Y-91394283D01*
X112408000Y-89417688D01*
X115013244Y-89417688D01*
X115080907Y-89577136D01*
X115473350Y-89693608D01*
X115880492Y-89651032D01*
X116058893Y-89577136D01*
X116126556Y-89417688D01*
X115569900Y-88861032D01*
X115013244Y-89417688D01*
X112408000Y-89417688D01*
X112408000Y-88552350D01*
X114525192Y-88552350D01*
X114567768Y-88959492D01*
X114641664Y-89137893D01*
X114801112Y-89205556D01*
X115357768Y-88648900D01*
X115782032Y-88648900D01*
X116338688Y-89205556D01*
X116498136Y-89137893D01*
X116614608Y-88745450D01*
X116572032Y-88338308D01*
X116498136Y-88159907D01*
X116338688Y-88092244D01*
X115782032Y-88648900D01*
X115357768Y-88648900D01*
X114801112Y-88092244D01*
X114641664Y-88159907D01*
X114525192Y-88552350D01*
X112408000Y-88552350D01*
X112408000Y-87880112D01*
X115013244Y-87880112D01*
X115569900Y-88436768D01*
X116126556Y-87880112D01*
X116058893Y-87720664D01*
X115666450Y-87604192D01*
X115259308Y-87646768D01*
X115080907Y-87720664D01*
X115013244Y-87880112D01*
X112408000Y-87880112D01*
X112408000Y-86310383D01*
X114541122Y-86310383D01*
X114697448Y-86688720D01*
X114986657Y-86978435D01*
X115364721Y-87135421D01*
X115774083Y-87135778D01*
X116152420Y-86979452D01*
X116442135Y-86690243D01*
X116599121Y-86312179D01*
X116599478Y-85902817D01*
X116443152Y-85524480D01*
X116153943Y-85234765D01*
X115775879Y-85077779D01*
X115366517Y-85077422D01*
X114988180Y-85233748D01*
X114698465Y-85522957D01*
X114541479Y-85901021D01*
X114541122Y-86310383D01*
X112408000Y-86310383D01*
X112408000Y-84395016D01*
X113033433Y-83769583D01*
X114541522Y-83769583D01*
X114697848Y-84147920D01*
X114987057Y-84437635D01*
X115365121Y-84594621D01*
X115774483Y-84594978D01*
X116152820Y-84438652D01*
X116442535Y-84149443D01*
X116599521Y-83771379D01*
X116599878Y-83362017D01*
X116443552Y-82983680D01*
X116154343Y-82693965D01*
X115776279Y-82536979D01*
X115366917Y-82536622D01*
X114988580Y-82692948D01*
X114698865Y-82982157D01*
X114541879Y-83360221D01*
X114541522Y-83769583D01*
X113033433Y-83769583D01*
X114946604Y-81856412D01*
X114986657Y-81896535D01*
X115078586Y-81934707D01*
X115168482Y-81994774D01*
X115273595Y-82015682D01*
X115364721Y-82053521D01*
X115464262Y-82053608D01*
X115570300Y-82074700D01*
X115675413Y-82053792D01*
X115774083Y-82053878D01*
X115866077Y-82015867D01*
X115972118Y-81994774D01*
X116061230Y-81935231D01*
X116152420Y-81897552D01*
X116222867Y-81827228D01*
X116312762Y-81767162D01*
X116372303Y-81678053D01*
X116442135Y-81608343D01*
X116480307Y-81516414D01*
X116540374Y-81426518D01*
X116561282Y-81321405D01*
X116599121Y-81230279D01*
X116599208Y-81130738D01*
X116620300Y-81024700D01*
X116620300Y-78483100D01*
X116599392Y-78377987D01*
X116599478Y-78279317D01*
X116561467Y-78187323D01*
X116540374Y-78081282D01*
X116480831Y-77992170D01*
X116443152Y-77900980D01*
X116372828Y-77830533D01*
X116312762Y-77740638D01*
X116223653Y-77681097D01*
X116153943Y-77611265D01*
X116062014Y-77573093D01*
X115972118Y-77513026D01*
X115867005Y-77492118D01*
X115775879Y-77454279D01*
X115676338Y-77454192D01*
X115570300Y-77433100D01*
X115465187Y-77454008D01*
X115366517Y-77453922D01*
X115274523Y-77491933D01*
X115168482Y-77513026D01*
X115079370Y-77572569D01*
X115053883Y-77583100D01*
X113950152Y-77583100D01*
X113890050Y-77493151D01*
X112541482Y-76144583D01*
X114541522Y-76144583D01*
X114697848Y-76522920D01*
X114987057Y-76812635D01*
X115365121Y-76969621D01*
X115774483Y-76969978D01*
X116152820Y-76813652D01*
X116442535Y-76524443D01*
X116599521Y-76146379D01*
X116599878Y-75737017D01*
X116443552Y-75358680D01*
X116154343Y-75068965D01*
X115776279Y-74911979D01*
X115366917Y-74911622D01*
X114988580Y-75067948D01*
X114698865Y-75357157D01*
X114541879Y-75735221D01*
X114541522Y-76144583D01*
X112541482Y-76144583D01*
X111382000Y-74985102D01*
X111382000Y-73603583D01*
X114541122Y-73603583D01*
X114697448Y-73981920D01*
X114986657Y-74271635D01*
X115364721Y-74428621D01*
X115774083Y-74428978D01*
X116152420Y-74272652D01*
X116442135Y-73983443D01*
X116599121Y-73605379D01*
X116599478Y-73196017D01*
X116443152Y-72817680D01*
X116153943Y-72527965D01*
X115775879Y-72370979D01*
X115366517Y-72370622D01*
X114988180Y-72526948D01*
X114698465Y-72816157D01*
X114541479Y-73194221D01*
X114541122Y-73603583D01*
X111382000Y-73603583D01*
X111382000Y-64516000D01*
X112255000Y-64516000D01*
X112255000Y-71374000D01*
X112279890Y-71499134D01*
X112279870Y-71522530D01*
X112288883Y-71544343D01*
X112313993Y-71670580D01*
X112384878Y-71776667D01*
X112393811Y-71798286D01*
X112410483Y-71814987D01*
X112481992Y-71922008D01*
X113243992Y-72684008D01*
X113350078Y-72754892D01*
X113366605Y-72771448D01*
X113388400Y-72780498D01*
X113495421Y-72852007D01*
X113620558Y-72876899D01*
X113642161Y-72885869D01*
X113665758Y-72885890D01*
X113792000Y-72911001D01*
X113917137Y-72886110D01*
X113940530Y-72886130D01*
X113962341Y-72877118D01*
X114088580Y-72852007D01*
X114194667Y-72781122D01*
X114216286Y-72772189D01*
X114232987Y-72755517D01*
X114340008Y-72684008D01*
X114410893Y-72577921D01*
X114427448Y-72561395D01*
X114436497Y-72539601D01*
X114508007Y-72432580D01*
X114527917Y-72332483D01*
X119620722Y-72332483D01*
X119777048Y-72710820D01*
X120066257Y-73000535D01*
X120444321Y-73157521D01*
X120853683Y-73157878D01*
X121232020Y-73001552D01*
X121521735Y-72712343D01*
X121678721Y-72334279D01*
X121679078Y-71924917D01*
X121522752Y-71546580D01*
X121233543Y-71256865D01*
X120855479Y-71099879D01*
X120446117Y-71099522D01*
X120067780Y-71255848D01*
X119778065Y-71545057D01*
X119621079Y-71923121D01*
X119620722Y-72332483D01*
X114527917Y-72332483D01*
X114532899Y-72307442D01*
X114541869Y-72285839D01*
X114541890Y-72262242D01*
X114567001Y-72136000D01*
X114542110Y-72010864D01*
X114542130Y-71987470D01*
X114533117Y-71965658D01*
X114508007Y-71839421D01*
X114437122Y-71733335D01*
X114428189Y-71711714D01*
X114411517Y-71695012D01*
X114366399Y-71627488D01*
X115013244Y-71627488D01*
X115080907Y-71786936D01*
X115473350Y-71903408D01*
X115880492Y-71860832D01*
X116058893Y-71786936D01*
X116126556Y-71627488D01*
X115569900Y-71070832D01*
X115013244Y-71627488D01*
X114366399Y-71627488D01*
X114340008Y-71587992D01*
X113805000Y-71052984D01*
X113805000Y-70762150D01*
X114525192Y-70762150D01*
X114567768Y-71169292D01*
X114641664Y-71347693D01*
X114801112Y-71415356D01*
X115357768Y-70858700D01*
X115782032Y-70858700D01*
X116338688Y-71415356D01*
X116498136Y-71347693D01*
X116614608Y-70955250D01*
X116572032Y-70548108D01*
X116498136Y-70369707D01*
X116338688Y-70302044D01*
X115782032Y-70858700D01*
X115357768Y-70858700D01*
X114801112Y-70302044D01*
X114641664Y-70369707D01*
X114525192Y-70762150D01*
X113805000Y-70762150D01*
X113805000Y-70089912D01*
X115013244Y-70089912D01*
X115569900Y-70646568D01*
X116126556Y-70089912D01*
X116058893Y-69930464D01*
X115666450Y-69813992D01*
X115259308Y-69856568D01*
X115080907Y-69930464D01*
X115013244Y-70089912D01*
X113805000Y-70089912D01*
X113805000Y-69790883D01*
X119620722Y-69790883D01*
X119777048Y-70169220D01*
X120066257Y-70458935D01*
X120444321Y-70615921D01*
X120853683Y-70616278D01*
X121232020Y-70459952D01*
X121521735Y-70170743D01*
X121678721Y-69792679D01*
X121679078Y-69383317D01*
X121522752Y-69004980D01*
X121233543Y-68715265D01*
X120855479Y-68558279D01*
X120446117Y-68557922D01*
X120067780Y-68714248D01*
X119778065Y-69003457D01*
X119621079Y-69381521D01*
X119620722Y-69790883D01*
X113805000Y-69790883D01*
X113805000Y-68520883D01*
X114540722Y-68520883D01*
X114697048Y-68899220D01*
X114986257Y-69188935D01*
X115364321Y-69345921D01*
X115773683Y-69346278D01*
X116152020Y-69189952D01*
X116441735Y-68900743D01*
X116598721Y-68522679D01*
X116599078Y-68113317D01*
X116442752Y-67734980D01*
X116153543Y-67445265D01*
X115775479Y-67288279D01*
X115366117Y-67287922D01*
X114987780Y-67444248D01*
X114698065Y-67733457D01*
X114541079Y-68111521D01*
X114540722Y-68520883D01*
X113805000Y-68520883D01*
X113805000Y-67248583D01*
X119621122Y-67248583D01*
X119777448Y-67626920D01*
X120066657Y-67916635D01*
X120444721Y-68073621D01*
X120854083Y-68073978D01*
X121232420Y-67917652D01*
X121522135Y-67628443D01*
X121679121Y-67250379D01*
X121679478Y-66841017D01*
X121523152Y-66462680D01*
X121233943Y-66172965D01*
X120855879Y-66015979D01*
X120446517Y-66015622D01*
X120068180Y-66171948D01*
X119778465Y-66461157D01*
X119621479Y-66839221D01*
X119621122Y-67248583D01*
X113805000Y-67248583D01*
X113805000Y-65978583D01*
X114541122Y-65978583D01*
X114697448Y-66356920D01*
X114986657Y-66646635D01*
X115364721Y-66803621D01*
X115774083Y-66803978D01*
X116152420Y-66647652D01*
X116442135Y-66358443D01*
X116599121Y-65980379D01*
X116599478Y-65571017D01*
X116443152Y-65192680D01*
X116153943Y-64902965D01*
X115775879Y-64745979D01*
X115366517Y-64745622D01*
X114988180Y-64901948D01*
X114698465Y-65191157D01*
X114541479Y-65569221D01*
X114541122Y-65978583D01*
X113805000Y-65978583D01*
X113805000Y-64837016D01*
X115229005Y-63413010D01*
X115229008Y-63413008D01*
X115397007Y-63161580D01*
X115406795Y-63112374D01*
X115456001Y-62865000D01*
X115456000Y-62864995D01*
X115456000Y-60739295D01*
X124726584Y-60739295D01*
X125091192Y-61621715D01*
X125765734Y-62297435D01*
X126647516Y-62663583D01*
X127602295Y-62664416D01*
X128484715Y-62299808D01*
X129160435Y-61625266D01*
X129526583Y-60743484D01*
X129527416Y-59788705D01*
X129162808Y-58906285D01*
X128488266Y-58230565D01*
X127606484Y-57864417D01*
X126651705Y-57863584D01*
X125769285Y-58228192D01*
X125093565Y-58902734D01*
X124727417Y-59784516D01*
X124726584Y-60739295D01*
X115456000Y-60739295D01*
X115456000Y-56140016D01*
X117230507Y-54365508D01*
X117301391Y-54259423D01*
X117317948Y-54242895D01*
X117326998Y-54221100D01*
X117398507Y-54114080D01*
X117423398Y-53988943D01*
X117432369Y-53967339D01*
X117432390Y-53943739D01*
X117457500Y-53817500D01*
X117432610Y-53692367D01*
X117432630Y-53668970D01*
X117423617Y-53647156D01*
X117398507Y-53520921D01*
X117327624Y-53414837D01*
X117318689Y-53393214D01*
X117302014Y-53376510D01*
X117230507Y-53269493D01*
X117124425Y-53198611D01*
X117107895Y-53182052D01*
X117086097Y-53173001D01*
X116979079Y-53101493D01*
X116853944Y-53076602D01*
X116832339Y-53067631D01*
X116808739Y-53067610D01*
X116682500Y-53042500D01*
X116557366Y-53067390D01*
X116533970Y-53067370D01*
X116512157Y-53076383D01*
X116385920Y-53101493D01*
X116279835Y-53172377D01*
X116258214Y-53181311D01*
X116241512Y-53197984D01*
X116134492Y-53269493D01*
X114132992Y-55270992D01*
X113964993Y-55522420D01*
X113906000Y-55819000D01*
X113906000Y-62543985D01*
X112481992Y-63967992D01*
X112313993Y-64219420D01*
X112255000Y-64516000D01*
X111382000Y-64516000D01*
X111382000Y-64270398D01*
X112432450Y-63219949D01*
X112669619Y-62865000D01*
X112735931Y-62765757D01*
X112842500Y-62230000D01*
X112842500Y-53094398D01*
X114344949Y-51591950D01*
X114648431Y-51137757D01*
X114670331Y-51027660D01*
X114755000Y-50602000D01*
X114755000Y-49093000D01*
X114754254Y-49089250D01*
X114755000Y-49085500D01*
X114648431Y-48549743D01*
X114344949Y-48095551D01*
X114255000Y-48035449D01*
X114255000Y-47560575D01*
X114404818Y-47199774D01*
X114405182Y-46782058D01*
X114405000Y-46781618D01*
X114405000Y-46324898D01*
X116940949Y-43788950D01*
X117244431Y-43334757D01*
X117249952Y-43307000D01*
X117318975Y-42960000D01*
X118189084Y-42960000D01*
X118397942Y-42960182D01*
X118784000Y-42800666D01*
X119079628Y-42505554D01*
X119239818Y-42119774D01*
X119240182Y-41702058D01*
X119080666Y-41316000D01*
X118785554Y-41020372D01*
X118399774Y-40860182D01*
X117982058Y-40859818D01*
X117981618Y-40860000D01*
X117303062Y-40860000D01*
X117244431Y-40565243D01*
X116940949Y-40111051D01*
X116799309Y-40016410D01*
X112741092Y-35958194D01*
X112646449Y-35816551D01*
X112294028Y-35581070D01*
X112519449Y-35430449D01*
X114164899Y-33785000D01*
X116078000Y-33785000D01*
X116613757Y-33678431D01*
X116978077Y-33435000D01*
X117639902Y-33435000D01*
X117880247Y-33534800D01*
X118337746Y-33535199D01*
X118760572Y-33360491D01*
X118879263Y-33242006D01*
X120005126Y-33242006D01*
X120087819Y-33413970D01*
X120524382Y-33550781D01*
X120980070Y-33510114D01*
X121212181Y-33413970D01*
X121294874Y-33242006D01*
X120650000Y-32597132D01*
X120005126Y-33242006D01*
X118879263Y-33242006D01*
X119084354Y-33037273D01*
X119259800Y-32614753D01*
X119260109Y-32259382D01*
X119484219Y-32259382D01*
X119524886Y-32715070D01*
X119621030Y-32947181D01*
X119792994Y-33029874D01*
X120437868Y-32385000D01*
X120862132Y-32385000D01*
X121507006Y-33029874D01*
X121678970Y-32947181D01*
X121815781Y-32510618D01*
X121775114Y-32054930D01*
X121678970Y-31822819D01*
X121507006Y-31740126D01*
X120862132Y-32385000D01*
X120437868Y-32385000D01*
X119792994Y-31740126D01*
X119621030Y-31822819D01*
X119484219Y-32259382D01*
X119260109Y-32259382D01*
X119260199Y-32157254D01*
X119085491Y-31734428D01*
X118879417Y-31527994D01*
X120005126Y-31527994D01*
X120650000Y-32172868D01*
X121294874Y-31527994D01*
X121212181Y-31356030D01*
X120775618Y-31219219D01*
X120319930Y-31259886D01*
X120087819Y-31356030D01*
X120005126Y-31527994D01*
X118879417Y-31527994D01*
X118762273Y-31410646D01*
X118339753Y-31235200D01*
X117882254Y-31234801D01*
X117639754Y-31335000D01*
X116978077Y-31335000D01*
X116613757Y-31091569D01*
X116078000Y-30985000D01*
X113585000Y-30985000D01*
X113049243Y-31091569D01*
X112898245Y-31192463D01*
X112595051Y-31395050D01*
X110539551Y-33450551D01*
X110236069Y-33904744D01*
X110150588Y-34334488D01*
X109668186Y-34816890D01*
X109520372Y-34964446D01*
X109360182Y-35350226D01*
X109359818Y-35767942D01*
X109519334Y-36154000D01*
X109814446Y-36449628D01*
X109814887Y-36449811D01*
X110265917Y-36900841D01*
X110363069Y-37389257D01*
X110666551Y-37843449D01*
X114551000Y-41727899D01*
X114551000Y-42219101D01*
X112365051Y-44405051D01*
X112061569Y-44859244D01*
X111955001Y-45395000D01*
X112061569Y-45930756D01*
X112305000Y-46295076D01*
X112305000Y-46989084D01*
X112304818Y-47197942D01*
X112455000Y-47561410D01*
X112455000Y-48030438D01*
X112357551Y-48095551D01*
X112054069Y-48549743D01*
X111947500Y-49085500D01*
X111955000Y-49123205D01*
X111955000Y-50022101D01*
X110452551Y-51524551D01*
X110149069Y-51978743D01*
X110042500Y-52514500D01*
X110042500Y-61650101D01*
X108992051Y-62700551D01*
X108688569Y-63154743D01*
X108582000Y-63690500D01*
X95295000Y-63690500D01*
X95295000Y-51320000D01*
X97902164Y-51320000D01*
X97902164Y-52820000D01*
X97930056Y-52968231D01*
X98017660Y-53104372D01*
X98151329Y-53195704D01*
X98310000Y-53227836D01*
X99810000Y-53227836D01*
X99958231Y-53199944D01*
X100094372Y-53112340D01*
X100185704Y-52978671D01*
X100217836Y-52820000D01*
X100217836Y-51320000D01*
X100189944Y-51171769D01*
X100102340Y-51035628D01*
X99968671Y-50944296D01*
X99810000Y-50912164D01*
X98310000Y-50912164D01*
X98161769Y-50940056D01*
X98025628Y-51027660D01*
X97934296Y-51161329D01*
X97902164Y-51320000D01*
X95295000Y-51320000D01*
X95295000Y-50387006D01*
X98415126Y-50387006D01*
X98497819Y-50558970D01*
X98934382Y-50695781D01*
X99390070Y-50655114D01*
X99622181Y-50558970D01*
X99704874Y-50387006D01*
X99060000Y-49742132D01*
X98415126Y-50387006D01*
X95295000Y-50387006D01*
X95295000Y-49404382D01*
X97894219Y-49404382D01*
X97934886Y-49860070D01*
X98031030Y-50092181D01*
X98202994Y-50174874D01*
X98847868Y-49530000D01*
X99272132Y-49530000D01*
X99917006Y-50174874D01*
X100088970Y-50092181D01*
X100225781Y-49655618D01*
X100185114Y-49199930D01*
X100088970Y-48967819D01*
X99917006Y-48885126D01*
X99272132Y-49530000D01*
X98847868Y-49530000D01*
X98202994Y-48885126D01*
X98031030Y-48967819D01*
X97894219Y-49404382D01*
X95295000Y-49404382D01*
X95295000Y-48672994D01*
X98415126Y-48672994D01*
X99060000Y-49317868D01*
X99704874Y-48672994D01*
X99622181Y-48501030D01*
X99185618Y-48364219D01*
X98729930Y-48404886D01*
X98497819Y-48501030D01*
X98415126Y-48672994D01*
X95295000Y-48672994D01*
X95295000Y-47217746D01*
X97909801Y-47217746D01*
X98084509Y-47640572D01*
X98407727Y-47964354D01*
X98830247Y-48139800D01*
X99287746Y-48140199D01*
X99710572Y-47965491D01*
X100034354Y-47642273D01*
X100201392Y-47240000D01*
X108805000Y-47240000D01*
X108805000Y-47719565D01*
X108865896Y-47866582D01*
X108978418Y-47979104D01*
X109125435Y-48040000D01*
X109605000Y-48040000D01*
X109705000Y-47940000D01*
X109705000Y-47140000D01*
X110005000Y-47140000D01*
X110005000Y-47940000D01*
X110105000Y-48040000D01*
X110584565Y-48040000D01*
X110731582Y-47979104D01*
X110844104Y-47866582D01*
X110905000Y-47719565D01*
X110905000Y-47240000D01*
X110805000Y-47140000D01*
X110005000Y-47140000D01*
X109705000Y-47140000D01*
X108905000Y-47140000D01*
X108805000Y-47240000D01*
X100201392Y-47240000D01*
X100209800Y-47219753D01*
X100210199Y-46762254D01*
X100035491Y-46339428D01*
X99956636Y-46260435D01*
X108805000Y-46260435D01*
X108805000Y-46740000D01*
X108905000Y-46840000D01*
X109705000Y-46840000D01*
X109705000Y-46040000D01*
X110005000Y-46040000D01*
X110005000Y-46840000D01*
X110805000Y-46840000D01*
X110905000Y-46740000D01*
X110905000Y-46260435D01*
X110844104Y-46113418D01*
X110731582Y-46000896D01*
X110584565Y-45940000D01*
X110105000Y-45940000D01*
X110005000Y-46040000D01*
X109705000Y-46040000D01*
X109605000Y-45940000D01*
X109125435Y-45940000D01*
X108978418Y-46000896D01*
X108865896Y-46113418D01*
X108805000Y-46260435D01*
X99956636Y-46260435D01*
X99712273Y-46015646D01*
X99289753Y-45840200D01*
X98832254Y-45839801D01*
X98409428Y-46014509D01*
X98085646Y-46337727D01*
X97910200Y-46760247D01*
X97909801Y-47217746D01*
X95295000Y-47217746D01*
X95295000Y-35810000D01*
X104360000Y-35810000D01*
X104360000Y-36289565D01*
X104420896Y-36436582D01*
X104533418Y-36549104D01*
X104680435Y-36610000D01*
X105160000Y-36610000D01*
X105260000Y-36510000D01*
X105260000Y-35710000D01*
X105560000Y-35710000D01*
X105560000Y-36510000D01*
X105660000Y-36610000D01*
X106139565Y-36610000D01*
X106286582Y-36549104D01*
X106399104Y-36436582D01*
X106460000Y-36289565D01*
X106460000Y-35810000D01*
X106360000Y-35710000D01*
X105560000Y-35710000D01*
X105260000Y-35710000D01*
X104460000Y-35710000D01*
X104360000Y-35810000D01*
X95295000Y-35810000D01*
X95295000Y-34830435D01*
X104360000Y-34830435D01*
X104360000Y-35310000D01*
X104460000Y-35410000D01*
X105260000Y-35410000D01*
X105260000Y-34610000D01*
X105560000Y-34610000D01*
X105560000Y-35410000D01*
X106360000Y-35410000D01*
X106460000Y-35310000D01*
X106460000Y-34830435D01*
X106399104Y-34683418D01*
X106286582Y-34570896D01*
X106139565Y-34510000D01*
X105660000Y-34510000D01*
X105560000Y-34610000D01*
X105260000Y-34610000D01*
X105160000Y-34510000D01*
X104680435Y-34510000D01*
X104533418Y-34570896D01*
X104420896Y-34683418D01*
X104360000Y-34830435D01*
X95295000Y-34830435D01*
X95295000Y-31999402D01*
X95641871Y-31998844D01*
X96954327Y-31455207D01*
X97336450Y-31028582D01*
X96599145Y-30291277D01*
X96811277Y-30079145D01*
X97548582Y-30816450D01*
X97975207Y-30434327D01*
X98521146Y-29110296D01*
X98520607Y-28775000D01*
X142120598Y-28775000D01*
X142121156Y-29121871D01*
M02*
