G04 #@! TF.FileFunction,Soldermask,Bot*
%FSLAX46Y46*%
G04 Gerber Fmt 4.6, Leading zero omitted, Abs format (unit mm)*
G04 Created by KiCad (PCBNEW 4.0.5) date 07/10/18 11:51:24*
%MOMM*%
%LPD*%
G01*
G04 APERTURE LIST*
%ADD10C,0.100000*%
%ADD11C,4.400000*%
%ADD12C,6.800000*%
%ADD13C,1.700000*%
%ADD14R,1.700000X1.700000*%
%ADD15R,1.900000X1.900000*%
%ADD16C,1.900000*%
%ADD17O,1.900000X1.900000*%
%ADD18C,2.700000*%
%ADD19C,1.658000*%
G04 APERTURE END LIST*
D10*
D11*
X127127000Y-60264000D03*
X127127000Y-99264000D03*
D12*
X145720000Y-28400000D03*
X94920000Y-28400000D03*
X94920000Y-130000000D03*
X145720000Y-130000000D03*
D13*
X131135000Y-46990000D03*
D14*
X127635000Y-46990000D03*
D13*
X113355000Y-46990000D03*
D14*
X109855000Y-46990000D03*
X129540000Y-35560000D03*
D13*
X134540000Y-35560000D03*
D14*
X105410000Y-35560000D03*
D13*
X110410000Y-35560000D03*
D14*
X123190000Y-41910000D03*
D13*
X118190000Y-41910000D03*
D15*
X123190000Y-32385000D03*
D16*
X120650000Y-32385000D03*
X118110000Y-32385000D03*
D15*
X99060000Y-111760000D03*
D16*
X99060000Y-109220000D03*
X99060000Y-106680000D03*
D15*
X99060000Y-52070000D03*
D16*
X99060000Y-49530000D03*
X99060000Y-46990000D03*
D15*
X116320000Y-126000000D03*
D17*
X118860000Y-126000000D03*
D15*
X121780000Y-126000000D03*
D17*
X124320000Y-126000000D03*
D18*
X141275000Y-112180000D03*
X141275000Y-107180000D03*
X141275000Y-51220000D03*
X141275000Y-46220000D03*
D19*
X115570300Y-65774800D03*
X115569900Y-68317100D03*
X115569900Y-70858700D03*
X115570300Y-73399800D03*
X115570700Y-75940800D03*
X115570300Y-78483100D03*
X115570300Y-81024700D03*
X115570700Y-83565800D03*
X115570300Y-86106600D03*
X115569900Y-88648900D03*
X115569900Y-91190500D03*
X115570300Y-93731600D03*
X120650300Y-67044800D03*
X120649900Y-69587100D03*
X120649900Y-72128700D03*
X120650300Y-74669800D03*
X120650700Y-77210800D03*
X120650300Y-79753100D03*
X120650300Y-82294700D03*
X120650700Y-84835800D03*
X120650300Y-87376600D03*
X120649900Y-89918900D03*
X120649900Y-92460500D03*
M02*
