M48
;DRILL file {KiCad 4.0.5} date 07/10/18 11:51:34
;FORMAT={-:-/ absolute / metric / decimal}
FMAT,2
METRIC,TZ
T1C0.300
T2C0.750
T3C0.800
T4C0.900
T5C1.300
T6C3.000
T7C3.200
%
G90
G05
M71
T1
X94.92Y-130.
X95.885Y-33.655
X95.885Y-38.735
X95.885Y-43.815
X95.885Y-48.895
X95.885Y-53.975
X95.885Y-57.785
X95.885Y-62.23
X95.885Y-67.945
X95.885Y-74.93
X95.885Y-82.55
X95.885Y-93.345
X95.885Y-99.695
X95.885Y-106.045
X95.885Y-112.395
X95.885Y-119.38
X95.885Y-124.46
X99.06Y-127.
X100.33Y-29.845
X100.33Y-86.106
X100.33Y-89.408
X102.235Y-128.905
X103.759Y-99.377
X103.759Y-102.552
X103.886Y-54.8
X103.95Y-57.785
X103.95Y-60.896
X104.267Y-63.5
X104.648Y-83.185
X104.648Y-95.822
X105.41Y-29.845
X106.172Y-65.278
X106.68Y-128.905
X107.188Y-48.831
X107.188Y-93.218
X107.188Y-97.472
X107.251Y-110.807
X107.315Y-61.023
X107.442Y-62.611
X107.442Y-81.28
X107.442Y-87.376
X107.442Y-96.012
X107.505Y-66.548
X107.569Y-83.185
X108.902Y-50.419
X109.474Y-52.387
X109.474Y-60.96
X109.601Y-93.789
X109.664Y-58.166
X109.728Y-29.972
X109.728Y-89.154
X109.791Y-90.742
X109.791Y-96.837
X109.791Y-99.377
X109.791Y-102.108
X109.791Y-105.156
X109.918Y-108.013
X110.49Y-128.905
X111.061Y-95.186
X113.03Y-71.374
X113.284Y-112.014
X113.284Y-115.824
X113.284Y-118.11
X113.411Y-88.773
X113.792Y-72.136
X114.3Y-128.905
X114.427Y-89.789
X116.682Y-53.817
X117.094Y-94.742
X117.157Y-90.678
X117.475Y-37.465
X117.475Y-102.87
X117.729Y-73.406
X117.856Y-68.58
X117.856Y-70.866
X118.745Y-118.11
X118.745Y-128.905
X118.935Y-70.866
X119.126Y-62.23
X119.126Y-65.405
X119.126Y-68.58
X119.38Y-29.591
X119.38Y-81.026
X119.507Y-78.486
X120.015Y-115.57
X120.269Y-96.647
X120.396Y-57.404
X120.65Y-37.465
X120.65Y-39.37
X120.65Y-43.815
X120.65Y-47.625
X120.777Y-52.324
X121.539Y-88.582
X121.666Y-78.613
X121.793Y-91.186
X121.92Y-106.045
X121.92Y-109.855
X122.047Y-85.852
X122.174Y-29.591
X122.174Y-84.582
X122.491Y-88.519
X122.555Y-98.806
X123.063Y-92.837
X123.19Y-128.905
X123.317Y-105.029
X123.825Y-37.465
X124.206Y-90.297
X124.841Y-111.506
X125.412Y-91.186
X126.746Y-52.324
X127.127Y-79.756
X127.191Y-89.281
X127.254Y-53.975
X127.381Y-85.979
X127.635Y-128.905
X128.778Y-73.787
X128.905Y-87.63
X129.54Y-80.01
X131.445Y-49.911
X132.08Y-91.44
X132.715Y-48.641
X132.715Y-101.6
X132.715Y-128.905
X133.096Y-69.215
X133.985Y-52.705
X134.493Y-56.007
X134.493Y-61.087
X134.62Y-80.01
X136.525Y-29.845
X136.525Y-95.885
X137.16Y-101.6
X137.795Y-128.905
X140.335Y-29.845
X140.97Y-128.905
X142.875Y-114.935
X142.875Y-122.555
X143.764Y-33.909
X143.764Y-37.465
X143.764Y-42.672
X144.145Y-53.975
X144.145Y-59.69
X144.145Y-66.04
X144.145Y-71.755
X144.145Y-78.74
X144.145Y-85.09
X144.145Y-91.44
X144.145Y-97.79
X144.145Y-104.775
X144.145Y-109.22
T2
X115.57Y-68.317
X115.57Y-70.859
X115.57Y-88.649
X115.57Y-91.191
X115.57Y-65.775
X115.57Y-73.4
X115.57Y-78.483
X115.57Y-81.025
X115.57Y-86.107
X115.57Y-93.732
X115.571Y-75.941
X115.571Y-83.566
X120.65Y-69.587
X120.65Y-72.129
X120.65Y-89.919
X120.65Y-92.46
X120.65Y-67.045
X120.65Y-74.67
X120.65Y-79.753
X120.65Y-82.295
X120.65Y-87.377
X120.651Y-77.211
X120.651Y-84.836
T3
X105.41Y-35.56
X109.855Y-46.99
X110.41Y-35.56
X113.355Y-46.99
X118.19Y-41.91
X123.19Y-41.91
X127.635Y-46.99
X129.54Y-35.56
X131.135Y-46.99
X134.54Y-35.56
T4
X99.06Y-46.99
X99.06Y-49.53
X99.06Y-52.07
X99.06Y-106.68
X99.06Y-109.22
X99.06Y-111.76
X116.32Y-126.
X118.11Y-32.385
X118.86Y-126.
X120.65Y-32.385
X121.78Y-126.
X123.19Y-32.385
X124.32Y-126.
T5
X141.275Y-46.22
X141.275Y-51.22
X141.275Y-107.18
X141.275Y-112.18
T6
X127.127Y-60.264
X127.127Y-99.264
T7
X94.92Y-28.4
X94.92Y-130.
X145.72Y-28.4
X145.72Y-130.
T0
M30
